solid CATIA STL
  facet normal  4.975186e-001  8.617275e-001 -9.950372e-002
    outer loop
      vertex -2.540420e+000  2.158674e+000 -9.707438e+000
      vertex -2.708778e+000  3.264086e+000 -9.760764e-001
      vertex -5.551115e-016  6.919615e-001 -9.707438e+000
    endloop
  endfacet
  facet normal  4.975186e-001  8.617275e-001 -9.950371e-002
    outer loop
      vertex -5.551115e-016  6.919615e-001 -9.707438e+000
      vertex -2.708778e+000  3.264086e+000 -9.760764e-001
      vertex  4.234460e-015  1.700857e+000 -9.701489e-001
    endloop
  endfacet
  facet normal -8.632675e-001  4.984075e-001 -7.974524e-002
    outer loop
      vertex -2.540420e+000  2.158674e+000 -9.707438e+000
      vertex -4.181170e+000  7.138277e-001 -9.760764e-001
      vertex -2.708778e+000  3.264086e+000 -9.760764e-001
    endloop
  endfacet
  facet normal -8.632673e-001  4.984077e-001 -7.974519e-002
    outer loop
      vertex -4.181170e+000  7.138277e-001 -9.760764e-001
      vertex -2.540420e+000  2.158674e+000 -9.707438e+000
      vertex -3.139676e+000  1.120731e+000 -9.707438e+000
    endloop
  endfacet
  facet normal -8.632672e-001  4.984077e-001 -7.974521e-002
    outer loop
      vertex -3.139676e+000  1.120731e+000 -9.707438e+000
      vertex -2.540420e+000  2.158674e+000 -9.707438e+000
      vertex -2.452172e+000  1.993112e+000 -1.169751e+001
    endloop
  endfacet
  facet normal -8.632674e-001  4.984076e-001 -7.974524e-002
    outer loop
      vertex -3.139676e+000  1.120731e+000 -9.707438e+000
      vertex -2.452172e+000  1.993112e+000 -1.169751e+001
      vertex -2.952172e+000  1.127087e+000 -1.169751e+001
    endloop
  endfacet
  facet normal -8.632673e-001  4.984076e-001 -7.974521e-002
    outer loop
      vertex -2.952172e+000  1.127087e+000 -1.169751e+001
      vertex -2.452172e+000  1.993112e+000 -1.169751e+001
      vertex -1.482051e+000  1.433013e+000 -2.570000e+001
    endloop
  endfacet
  facet normal -8.632673e-001  4.984076e-001 -7.974521e-002
    outer loop
      vertex -2.952172e+000  1.127087e+000 -1.169751e+001
      vertex -1.482051e+000  1.433013e+000 -2.570000e+001
      vertex -1.982051e+000  5.669873e-001 -2.570000e+001
    endloop
  endfacet
  facet normal -4.975186e-001  8.617275e-001 -9.950373e-002
    outer loop
      vertex  2.540420e+000  2.158674e+000 -9.707438e+000
      vertex -5.551115e-016  6.919615e-001 -9.707438e+000
      vertex  2.708893e+000  3.264837e+000 -9.701489e-001
    endloop
  endfacet
  facet normal -4.975186e-001  8.617275e-001 -9.950372e-002
    outer loop
      vertex  2.708893e+000  3.264837e+000 -9.701489e-001
      vertex -5.551115e-016  6.919615e-001 -9.707438e+000
      vertex  4.234460e-015  1.700857e+000 -9.701489e-001
    endloop
  endfacet
  facet normal  8.632674e-001  4.984076e-001 -7.974521e-002
    outer loop
      vertex  3.139676e+000  1.120731e+000 -9.707438e+000
      vertex  2.708893e+000  3.264837e+000 -9.701489e-001
      vertex  4.181170e+000  7.138277e-001 -9.760764e-001
    endloop
  endfacet
  facet normal  8.632674e-001  4.984078e-001 -7.974523e-002
    outer loop
      vertex  2.708893e+000  3.264837e+000 -9.701489e-001
      vertex  3.139676e+000  1.120731e+000 -9.707438e+000
      vertex  2.540420e+000  2.158674e+000 -9.707438e+000
    endloop
  endfacet
  facet normal  8.632672e-001  4.984077e-001 -7.974525e-002
    outer loop
      vertex  2.540420e+000  2.158674e+000 -9.707438e+000
      vertex  3.139676e+000  1.120731e+000 -9.707438e+000
      vertex  2.952172e+000  1.127087e+000 -1.169751e+001
    endloop
  endfacet
  facet normal  8.632674e-001  4.984076e-001 -7.974520e-002
    outer loop
      vertex  2.540420e+000  2.158674e+000 -9.707438e+000
      vertex  2.952172e+000  1.127087e+000 -1.169751e+001
      vertex  2.452172e+000  1.993112e+000 -1.169751e+001
    endloop
  endfacet
  facet normal  8.632673e-001  4.984076e-001 -7.974521e-002
    outer loop
      vertex  2.452172e+000  1.993112e+000 -1.169751e+001
      vertex  2.952172e+000  1.127087e+000 -1.169751e+001
      vertex  1.982051e+000  5.669873e-001 -2.570000e+001
    endloop
  endfacet
  facet normal  8.632673e-001  4.984076e-001 -7.974521e-002
    outer loop
      vertex  2.452172e+000  1.993112e+000 -1.169751e+001
      vertex  1.982051e+000  5.669873e-001 -2.570000e+001
      vertex  1.482051e+000  1.433013e+000 -2.570000e+001
    endloop
  endfacet
  facet normal  4.975186e-001 -8.617275e-001 -9.950370e-002
    outer loop
      vertex  3.139676e+000  1.120731e+000 -9.707438e+000
      vertex  4.181170e+000  7.138277e-001 -9.760764e-001
      vertex  5.992562e-001 -3.459807e-001 -9.707438e+000
    endloop
  endfacet
  facet normal  4.975186e-001 -8.617275e-001 -9.950372e-002
    outer loop
      vertex  5.992562e-001 -3.459807e-001 -9.707438e+000
      vertex  4.181170e+000  7.138277e-001 -9.760764e-001
      vertex  1.472985e+000 -8.504283e-001 -9.701489e-001
    endloop
  endfacet
  facet normal  9.950372e-001  0.000000e+000 -9.950372e-002
    outer loop
      vertex  5.992562e-001 -3.279405e+000 -9.707438e+000
      vertex  5.992562e-001 -3.459807e-001 -9.707438e+000
      vertex  1.472985e+000 -3.978388e+000 -9.701489e-001
    endloop
  endfacet
  facet normal  9.950372e-001  0.000000e+000 -9.950372e-002
    outer loop
      vertex  1.472985e+000 -3.978388e+000 -9.701489e-001
      vertex  5.992562e-001 -3.459807e-001 -9.707438e+000
      vertex  1.472985e+000 -8.504283e-001 -9.701489e-001
    endloop
  endfacet
  facet normal -3.212140e-009 -9.968153e-001 -7.974522e-002
    outer loop
      vertex -5.992562e-001 -3.279405e+000 -9.707438e+000
      vertex  1.472985e+000 -3.978388e+000 -9.701489e-001
      vertex -1.472392e+000 -3.977914e+000 -9.760764e-001
    endloop
  endfacet
  facet normal  0.000000e+000 -9.968153e-001 -7.974523e-002
    outer loop
      vertex  1.472985e+000 -3.978388e+000 -9.701489e-001
      vertex -5.992562e-001 -3.279405e+000 -9.707438e+000
      vertex  5.992562e-001 -3.279405e+000 -9.707438e+000
    endloop
  endfacet
  facet normal  -0.000000e+000 -9.968153e-001 -7.974521e-002
    outer loop
      vertex  5.992562e-001 -3.279405e+000 -9.707438e+000
      vertex -5.992562e-001 -3.279405e+000 -9.707438e+000
      vertex -5.000000e-001 -3.120199e+000 -1.169751e+001
    endloop
  endfacet
  facet normal  0.000000e+000 -9.968153e-001 -7.974521e-002
    outer loop
      vertex  5.992562e-001 -3.279405e+000 -9.707438e+000
      vertex -5.000000e-001 -3.120199e+000 -1.169751e+001
      vertex  5.000000e-001 -3.120199e+000 -1.169751e+001
    endloop
  endfacet
  facet normal  -0.000000e+000 -9.968152e-001 -7.974521e-002
    outer loop
      vertex  5.000000e-001 -3.120199e+000 -1.169751e+001
      vertex -5.000000e-001 -3.120199e+000 -1.169751e+001
      vertex -5.000000e-001 -2.000000e+000 -2.570000e+001
    endloop
  endfacet
  facet normal  0.000000e+000 -9.968152e-001 -7.974521e-002
    outer loop
      vertex  5.000000e-001 -3.120199e+000 -1.169751e+001
      vertex -5.000000e-001 -2.000000e+000 -2.570000e+001
      vertex  5.000000e-001 -2.000000e+000 -2.570000e+001
    endloop
  endfacet
  facet normal -9.950373e-001  0.000000e+000 -9.950371e-002
    outer loop
      vertex -5.992562e-001 -3.279405e+000 -9.707438e+000
      vertex -1.472392e+000 -3.977914e+000 -9.760764e-001
      vertex -5.992562e-001 -3.459807e-001 -9.707438e+000
    endloop
  endfacet
  facet normal -9.950372e-001 -3.472321e-008 -9.950372e-002
    outer loop
      vertex -5.992562e-001 -3.459807e-001 -9.707438e+000
      vertex -1.472392e+000 -3.977914e+000 -9.760764e-001
      vertex -1.472985e+000 -8.504283e-001 -9.701489e-001
    endloop
  endfacet
  facet normal -4.975186e-001 -8.617275e-001 -9.950370e-002
    outer loop
      vertex -3.139676e+000  1.120731e+000 -9.707438e+000
      vertex -5.992562e-001 -3.459807e-001 -9.707438e+000
      vertex -4.181170e+000  7.138277e-001 -9.760764e-001
    endloop
  endfacet
  facet normal -4.975187e-001 -8.617275e-001 -9.950372e-002
    outer loop
      vertex -4.181170e+000  7.138277e-001 -9.760764e-001
      vertex -5.992562e-001 -3.459807e-001 -9.707438e+000
      vertex -1.472985e+000 -8.504283e-001 -9.701489e-001
    endloop
  endfacet
  facet normal  0.000000e+000  0.000000e+000 -1.000000e+000
    outer loop
      vertex  4.949747e-001  3.641534e+000 -7.000000e-001
      vertex  2.325000e+000  4.027018e+000 -7.000000e-001
      vertex  7.000000e-001  3.146559e+000 -7.000000e-001
    endloop
  endfacet
  facet normal  0.000000e+000  0.000000e+000 -9.999999e-001
    outer loop
      vertex  2.325000e+000  4.027018e+000 -7.000000e-001
      vertex  4.949747e-001  2.651584e+000 -7.000000e-001
      vertex  7.000000e-001  3.146559e+000 -7.000000e-001
    endloop
  endfacet
  facet normal  0.000000e+000  0.000000e+000 -1.000000e+000
    outer loop
      vertex  3.061555e+000 -9.594957e-001 -7.000000e-001
      vertex  4.296040e+000 -1.779478e+000 -7.000000e-001
      vertex  3.396991e+000 -1.377249e+000 -7.000000e-001
    endloop
  endfacet
  facet normal  -0.000000e+000  0.000000e+000 -9.999999e-001
    outer loop
      vertex -2.325000e+000  4.027018e+000 -7.000000e-001
      vertex -4.949747e-001  3.641534e+000 -7.000000e-001
      vertex -7.000000e-001  3.146559e+000 -7.000000e-001
    endloop
  endfacet
  facet normal  -0.000000e+000  0.000000e+000 -9.999999e-001
    outer loop
      vertex  2.325000e+000  4.027018e+000 -7.000000e-001
      vertex  2.830741e+000  3.689093e+000 -7.000000e-001
      vertex  2.818207e+000  3.672640e+000 -7.000000e-001
    endloop
  endfacet
  facet normal  -0.000000e+000  0.000000e+000 -1.000000e+000
    outer loop
      vertex -3.219975e+000 -2.068254e+000 -7.000000e-001
      vertex -2.725000e+000 -2.273279e+000 -7.000000e-001
      vertex -3.288047e+000 -3.288047e+000 -7.000000e-001
    endloop
  endfacet
  facet normal  0.000000e+000  0.000000e+000 -1.000000e+000
    outer loop
      vertex -4.984221e-015 -4.650000e+000 -7.000000e-001
      vertex -1.779478e+000 -4.296040e+000 -7.000000e-001
      vertex  1.779478e+000 -4.296040e+000 -7.000000e-001
    endloop
  endfacet
  facet normal  0.000000e+000  0.000000e+000 -1.000000e+000
    outer loop
      vertex -1.771496e+000 -1.022774e+000 -7.000000e-001
      vertex -1.771496e+000 -4.276958e+000 -7.000000e-001
      vertex -2.230025e+000 -2.068254e+000 -7.000000e-001
    endloop
  endfacet
  facet normal  0.000000e+000  0.000000e+000 -1.000000e+000
    outer loop
      vertex -1.771496e+000 -1.022774e+000 -7.000000e-001
      vertex -2.230025e+000 -2.068254e+000 -7.000000e-001
      vertex -2.025000e+000 -1.573280e+000 -7.000000e-001
    endloop
  endfacet
  facet normal  0.000000e+000  0.000000e+000 -1.000000e+000
    outer loop
      vertex -1.771496e+000 -1.022774e+000 -7.000000e-001
      vertex -2.025000e+000 -1.573280e+000 -7.000000e-001
      vertex -2.230025e+000 -1.078305e+000 -7.000000e-001
    endloop
  endfacet
  facet normal  0.000000e+000  0.000000e+000 -1.000000e+000
    outer loop
      vertex -1.771496e+000 -1.022774e+000 -7.000000e-001
      vertex -2.230025e+000 -1.078305e+000 -7.000000e-001
      vertex -2.725000e+000 -8.732795e-001 -7.000000e-001
    endloop
  endfacet
  facet normal  0.000000e+000  0.000000e+000 -1.000000e+000
    outer loop
      vertex  2.100929e-016  2.045548e+000 -7.000000e-001
      vertex -2.818207e+000  3.672640e+000 -7.000000e-001
      vertex -4.949747e-001  2.651584e+000 -7.000000e-001
    endloop
  endfacet
  facet normal  0.000000e+000  0.000000e+000 -1.000000e+000
    outer loop
      vertex  2.100929e-016  2.045548e+000 -7.000000e-001
      vertex -4.949747e-001  2.651584e+000 -7.000000e-001
      vertex  2.044790e-016  2.446559e+000 -7.000000e-001
    endloop
  endfacet
  facet normal  0.000000e+000  0.000000e+000 -1.000000e+000
    outer loop
      vertex  2.100929e-016  2.045548e+000 -7.000000e-001
      vertex  2.044790e-016  2.446559e+000 -7.000000e-001
      vertex  4.949747e-001  2.651584e+000 -7.000000e-001
    endloop
  endfacet
  facet normal  0.000000e+000  -0.000000e+000 -9.999999e-001
    outer loop
      vertex  2.100929e-016  2.045548e+000 -7.000000e-001
      vertex  4.949747e-001  2.651584e+000 -7.000000e-001
      vertex  2.325000e+000  4.027018e+000 -7.000000e-001
    endloop
  endfacet
  facet normal  0.000000e+000  -0.000000e+000 -1.000000e+000
    outer loop
      vertex  2.100929e-016  2.045548e+000 -7.000000e-001
      vertex  2.325000e+000  4.027018e+000 -7.000000e-001
      vertex  2.818207e+000  3.672640e+000 -7.000000e-001
    endloop
  endfacet
  facet normal  0.000000e+000  0.000000e+000 -1.000000e+000
    outer loop
      vertex -4.589703e+000  6.043184e-001 -7.000000e-001
      vertex -1.771496e+000 -1.022774e+000 -7.000000e-001
      vertex -2.725000e+000 -8.732795e-001 -7.000000e-001
    endloop
  endfacet
  facet normal  -0.000000e+000  0.000000e+000 -1.000000e+000
    outer loop
      vertex -4.589703e+000  6.043184e-001 -7.000000e-001
      vertex -2.725000e+000 -8.732795e-001 -7.000000e-001
      vertex -3.219975e+000 -1.078305e+000 -7.000000e-001
    endloop
  endfacet
  facet normal  -0.000000e+000  0.000000e+000 -1.000000e+000
    outer loop
      vertex -4.589703e+000  6.043184e-001 -7.000000e-001
      vertex -3.219975e+000 -1.078305e+000 -7.000000e-001
      vertex -4.296040e+000 -1.779478e+000 -7.000000e-001
    endloop
  endfacet
  facet normal  0.000000e+000  0.000000e+000 -9.999999e-001
    outer loop
      vertex -4.589703e+000  6.043184e-001 -7.000000e-001
      vertex -4.296040e+000 -1.779478e+000 -7.000000e-001
      vertex -4.650000e+000  5.694608e-016 -7.000000e-001
    endloop
  endfacet
  facet normal  0.000000e+000  0.000000e+000 -1.000000e+000
    outer loop
      vertex -4.589703e+000  6.043184e-001 -7.000000e-001
      vertex -4.650000e+000  5.694608e-016 -7.000000e-001
      vertex -4.610219e+000  6.069468e-001 -7.000000e-001
    endloop
  endfacet
  facet normal  0.000000e+000  0.000000e+000 -1.000000e+000
    outer loop
      vertex -4.589703e+000  6.043184e-001 -7.000000e-001
      vertex -4.610219e+000  6.069468e-001 -7.000000e-001
      vertex -4.491555e+000  1.203509e+000 -7.000000e-001
    endloop
  endfacet
  facet normal  0.000000e+000  -0.000000e+000 -1.000000e+000
    outer loop
      vertex -4.589703e+000  6.043184e-001 -7.000000e-001
      vertex -4.491555e+000  1.203509e+000 -7.000000e-001
      vertex -4.296040e+000  1.779478e+000 -7.000000e-001
    endloop
  endfacet
  facet normal  0.000000e+000  -0.000000e+000 -1.000000e+000
    outer loop
      vertex -4.589703e+000  6.043184e-001 -7.000000e-001
      vertex -4.296040e+000  1.779478e+000 -7.000000e-001
      vertex -4.027018e+000  2.325000e+000 -7.000000e-001
    endloop
  endfacet
  facet normal  0.000000e+000  -0.000000e+000 -1.000000e+000
    outer loop
      vertex -4.589703e+000  6.043184e-001 -7.000000e-001
      vertex -4.027018e+000  2.325000e+000 -7.000000e-001
      vertex -3.689093e+000  2.830741e+000 -7.000000e-001
    endloop
  endfacet
  facet normal  0.000000e+000  -0.000000e+000 -1.000000e+000
    outer loop
      vertex -4.589703e+000  6.043184e-001 -7.000000e-001
      vertex -3.689093e+000  2.830741e+000 -7.000000e-001
      vertex -3.288047e+000  3.288047e+000 -7.000000e-001
    endloop
  endfacet
  facet normal  0.000000e+000  -0.000000e+000 -1.000000e+000
    outer loop
      vertex -4.589703e+000  6.043184e-001 -7.000000e-001
      vertex -3.288047e+000  3.288047e+000 -7.000000e-001
      vertex -2.830741e+000  3.689093e+000 -7.000000e-001
    endloop
  endfacet
  facet normal  0.000000e+000  -0.000000e+000 -1.000000e+000
    outer loop
      vertex -4.589703e+000  6.043184e-001 -7.000000e-001
      vertex -2.830741e+000  3.689093e+000 -7.000000e-001
      vertex -2.818207e+000  3.672640e+000 -7.000000e-001
    endloop
  endfacet
  facet normal  0.000000e+000  -0.000000e+000 -1.000000e+000
    outer loop
      vertex  1.771496e+000 -4.276958e+000 -7.000000e-001
      vertex  2.053009e+000 -1.769310e+000 -7.000000e-001
      vertex  2.388445e+000 -2.187063e+000 -7.000000e-001
    endloop
  endfacet
  facet normal  0.000000e+000  0.000000e+000 -1.000000e+000
    outer loop
      vertex  1.771496e+000 -4.276958e+000 -7.000000e-001
      vertex  2.388445e+000 -2.187063e+000 -7.000000e-001
      vertex  1.779478e+000 -4.296040e+000 -7.000000e-001
    endloop
  endfacet
  facet normal  0.000000e+000  0.000000e+000 -1.000000e+000
    outer loop
      vertex  1.771496e+000 -4.276958e+000 -7.000000e-001
      vertex  1.779478e+000 -4.296040e+000 -7.000000e-001
      vertex -1.779478e+000 -4.296040e+000 -7.000000e-001
    endloop
  endfacet
  facet normal  0.000000e+000  0.000000e+000 -1.000000e+000
    outer loop
      vertex  1.771496e+000 -4.276958e+000 -7.000000e-001
      vertex -1.779478e+000 -4.296040e+000 -7.000000e-001
      vertex -1.771496e+000 -4.276958e+000 -7.000000e-001
    endloop
  endfacet
  facet normal  0.000000e+000  0.000000e+000 -1.000000e+000
    outer loop
      vertex  4.589703e+000  6.043184e-001 -7.000000e-001
      vertex  2.818207e+000  3.672640e+000 -7.000000e-001
      vertex  2.830741e+000  3.689093e+000 -7.000000e-001
    endloop
  endfacet
  facet normal  0.000000e+000  0.000000e+000 -1.000000e+000
    outer loop
      vertex  4.589703e+000  6.043184e-001 -7.000000e-001
      vertex  2.830741e+000  3.689093e+000 -7.000000e-001
      vertex  3.288047e+000  3.288047e+000 -7.000000e-001
    endloop
  endfacet
  facet normal  0.000000e+000  0.000000e+000 -1.000000e+000
    outer loop
      vertex  4.589703e+000  6.043184e-001 -7.000000e-001
      vertex  3.288047e+000  3.288047e+000 -7.000000e-001
      vertex  3.689093e+000  2.830741e+000 -7.000000e-001
    endloop
  endfacet
  facet normal  0.000000e+000  0.000000e+000 -9.999999e-001
    outer loop
      vertex  4.589703e+000  6.043184e-001 -7.000000e-001
      vertex  3.689093e+000  2.830741e+000 -7.000000e-001
      vertex  4.027018e+000  2.325000e+000 -7.000000e-001
    endloop
  endfacet
  facet normal  0.000000e+000  0.000000e+000 -1.000000e+000
    outer loop
      vertex  4.589703e+000  6.043184e-001 -7.000000e-001
      vertex  4.027018e+000  2.325000e+000 -7.000000e-001
      vertex  4.296040e+000  1.779478e+000 -7.000000e-001
    endloop
  endfacet
  facet normal  0.000000e+000  0.000000e+000 -1.000000e+000
    outer loop
      vertex  4.589703e+000  6.043184e-001 -7.000000e-001
      vertex  4.296040e+000  1.779478e+000 -7.000000e-001
      vertex  4.491555e+000  1.203509e+000 -7.000000e-001
    endloop
  endfacet
  facet normal  0.000000e+000  0.000000e+000 -1.000000e+000
    outer loop
      vertex  4.589703e+000  6.043184e-001 -7.000000e-001
      vertex  4.491555e+000  1.203509e+000 -7.000000e-001
      vertex  4.610219e+000  6.069468e-001 -7.000000e-001
    endloop
  endfacet
  facet normal  0.000000e+000  -0.000000e+000 -1.000000e+000
    outer loop
      vertex  4.589703e+000  6.043184e-001 -7.000000e-001
      vertex  4.610219e+000  6.069468e-001 -7.000000e-001
      vertex  4.650000e+000  0.000000e+000 -7.000000e-001
    endloop
  endfacet
  facet normal  -0.000000e+000  0.000000e+000 -9.999999e-001
    outer loop
      vertex  4.589703e+000  6.043184e-001 -7.000000e-001
      vertex  4.650000e+000  0.000000e+000 -7.000000e-001
      vertex  4.296040e+000 -1.779478e+000 -7.000000e-001
    endloop
  endfacet
  facet normal  0.000000e+000  0.000000e+000 -1.000000e+000
    outer loop
      vertex  4.589703e+000  6.043184e-001 -7.000000e-001
      vertex  4.296040e+000 -1.779478e+000 -7.000000e-001
      vertex  3.061555e+000 -9.594957e-001 -7.000000e-001
    endloop
  endfacet
  facet normal  0.000000e+000  0.000000e+000 -9.999999e-001
    outer loop
      vertex  4.589703e+000  6.043184e-001 -7.000000e-001
      vertex  3.061555e+000 -9.594957e-001 -7.000000e-001
      vertex  2.528970e+000 -9.012883e-001 -7.000000e-001
    endloop
  endfacet
  facet normal  -0.000000e+000  0.000000e+000 -9.999999e-001
    outer loop
      vertex  4.589703e+000  6.043184e-001 -7.000000e-001
      vertex  2.528970e+000 -9.012883e-001 -7.000000e-001
      vertex  1.771496e+000 -1.022774e+000 -7.000000e-001
    endloop
  endfacet
  facet normal  0.000000e+000  0.000000e+000 -1.000000e+000
    outer loop
      vertex  3.759296e-016  3.846559e+000 -7.000000e-001
      vertex -4.949747e-001  3.641534e+000 -7.000000e-001
      vertex -2.325000e+000  4.027018e+000 -7.000000e-001
    endloop
  endfacet
  facet normal  0.000000e+000  0.000000e+000 -1.000000e+000
    outer loop
      vertex  3.759296e-016  3.846559e+000 -7.000000e-001
      vertex -2.325000e+000  4.027018e+000 -7.000000e-001
      vertex -1.779478e+000  4.296040e+000 -7.000000e-001
    endloop
  endfacet
  facet normal  0.000000e+000  0.000000e+000 -1.000000e+000
    outer loop
      vertex  3.759296e-016  3.846559e+000 -7.000000e-001
      vertex -1.779478e+000  4.296040e+000 -7.000000e-001
      vertex -1.203509e+000  4.491555e+000 -7.000000e-001
    endloop
  endfacet
  facet normal  0.000000e+000  0.000000e+000 -1.000000e+000
    outer loop
      vertex  3.759296e-016  3.846559e+000 -7.000000e-001
      vertex -1.203509e+000  4.491555e+000 -7.000000e-001
      vertex -6.069468e-001  4.610219e+000 -7.000000e-001
    endloop
  endfacet
  facet normal  0.000000e+000  0.000000e+000 -9.999999e-001
    outer loop
      vertex  3.759296e-016  3.846559e+000 -7.000000e-001
      vertex -6.069468e-001  4.610219e+000 -7.000000e-001
      vertex  2.847304e-016  4.650000e+000 -7.000000e-001
    endloop
  endfacet
  facet normal  0.000000e+000  0.000000e+000 -9.999999e-001
    outer loop
      vertex  3.759296e-016  3.846559e+000 -7.000000e-001
      vertex  2.847304e-016  4.650000e+000 -7.000000e-001
      vertex  6.069468e-001  4.610219e+000 -7.000000e-001
    endloop
  endfacet
  facet normal  0.000000e+000  -0.000000e+000 -1.000000e+000
    outer loop
      vertex  3.759296e-016  3.846559e+000 -7.000000e-001
      vertex  6.069468e-001  4.610219e+000 -7.000000e-001
      vertex  1.203509e+000  4.491555e+000 -7.000000e-001
    endloop
  endfacet
  facet normal  0.000000e+000  -0.000000e+000 -1.000000e+000
    outer loop
      vertex  3.759296e-016  3.846559e+000 -7.000000e-001
      vertex  1.203509e+000  4.491555e+000 -7.000000e-001
      vertex  1.779478e+000  4.296040e+000 -7.000000e-001
    endloop
  endfacet
  facet normal  0.000000e+000  -0.000000e+000 -1.000000e+000
    outer loop
      vertex  3.759296e-016  3.846559e+000 -7.000000e-001
      vertex  1.779478e+000  4.296040e+000 -7.000000e-001
      vertex  2.325000e+000  4.027018e+000 -7.000000e-001
    endloop
  endfacet
  facet normal  0.000000e+000  0.000000e+000 -1.000000e+000
    outer loop
      vertex  3.759296e-016  3.846559e+000 -7.000000e-001
      vertex  2.325000e+000  4.027018e+000 -7.000000e-001
      vertex  4.949747e-001  3.641534e+000 -7.000000e-001
    endloop
  endfacet
  facet normal  0.000000e+000  0.000000e+000 -1.000000e+000
    outer loop
      vertex  1.771496e+000 -1.022774e+000 -7.000000e-001
      vertex  2.528970e+000 -9.012883e-001 -7.000000e-001
      vertex  2.111216e+000 -1.236724e+000 -7.000000e-001
    endloop
  endfacet
  facet normal  -0.000000e+000  0.000000e+000 -1.000000e+000
    outer loop
      vertex  1.771496e+000 -1.022774e+000 -7.000000e-001
      vertex  2.111216e+000 -1.236724e+000 -7.000000e-001
      vertex  2.053009e+000 -1.769310e+000 -7.000000e-001
    endloop
  endfacet
  facet normal  -0.000000e+000  0.000000e+000 -1.000000e+000
    outer loop
      vertex  1.771496e+000 -1.022774e+000 -7.000000e-001
      vertex  2.053009e+000 -1.769310e+000 -7.000000e-001
      vertex  1.771496e+000 -4.276958e+000 -7.000000e-001
    endloop
  endfacet
  facet normal  0.000000e+000  0.000000e+000 -1.000000e+000
    outer loop
      vertex -2.230025e+000 -2.068254e+000 -7.000000e-001
      vertex -1.771496e+000 -4.276958e+000 -7.000000e-001
      vertex -2.725000e+000 -2.273279e+000 -7.000000e-001
    endloop
  endfacet
  facet normal  0.000000e+000  0.000000e+000 -1.000000e+000
    outer loop
      vertex -2.725000e+000 -2.273279e+000 -7.000000e-001
      vertex -1.771496e+000 -4.276958e+000 -7.000000e-001
      vertex -1.779478e+000 -4.296040e+000 -7.000000e-001
    endloop
  endfacet
  facet normal  0.000000e+000  0.000000e+000 -1.000000e+000
    outer loop
      vertex -2.725000e+000 -2.273279e+000 -7.000000e-001
      vertex -1.779478e+000 -4.296040e+000 -7.000000e-001
      vertex -3.288047e+000 -3.288047e+000 -7.000000e-001
    endloop
  endfacet
  facet normal  0.000000e+000  0.000000e+000 -1.000000e+000
    outer loop
      vertex -2.830741e+000  3.689093e+000 -7.000000e-001
      vertex -2.325000e+000  4.027018e+000 -7.000000e-001
      vertex -2.818207e+000  3.672640e+000 -7.000000e-001
    endloop
  endfacet
  facet normal  0.000000e+000  0.000000e+000 -1.000000e+000
    outer loop
      vertex -2.818207e+000  3.672640e+000 -7.000000e-001
      vertex -2.325000e+000  4.027018e+000 -7.000000e-001
      vertex -7.000000e-001  3.146559e+000 -7.000000e-001
    endloop
  endfacet
  facet normal  -0.000000e+000  -0.000000e+000 -1.000000e+000
    outer loop
      vertex -2.818207e+000  3.672640e+000 -7.000000e-001
      vertex -7.000000e-001  3.146559e+000 -7.000000e-001
      vertex -4.949747e-001  2.651584e+000 -7.000000e-001
    endloop
  endfacet
  facet normal  -0.000000e+000  0.000000e+000 -1.000000e+000
    outer loop
      vertex  3.396991e+000 -1.377249e+000 -7.000000e-001
      vertex  4.296040e+000 -1.779478e+000 -7.000000e-001
      vertex  3.338784e+000 -1.909835e+000 -7.000000e-001
    endloop
  endfacet
  facet normal  0.000000e+000  -0.000000e+000 -1.000000e+000
    outer loop
      vertex  3.338784e+000 -1.909835e+000 -7.000000e-001
      vertex  4.296040e+000 -1.779478e+000 -7.000000e-001
      vertex  3.288047e+000 -3.288047e+000 -7.000000e-001
    endloop
  endfacet
  facet normal  0.000000e+000  0.000000e+000 -1.000000e+000
    outer loop
      vertex  3.338784e+000 -1.909835e+000 -7.000000e-001
      vertex  3.288047e+000 -3.288047e+000 -7.000000e-001
      vertex  2.921030e+000 -2.245271e+000 -7.000000e-001
    endloop
  endfacet
  facet normal  0.000000e+000  -0.000000e+000 -9.999999e-001
    outer loop
      vertex  2.921030e+000 -2.245271e+000 -7.000000e-001
      vertex  3.288047e+000 -3.288047e+000 -7.000000e-001
      vertex  1.779478e+000 -4.296040e+000 -7.000000e-001
    endloop
  endfacet
  facet normal  0.000000e+000  0.000000e+000 -1.000000e+000
    outer loop
      vertex  2.921030e+000 -2.245271e+000 -7.000000e-001
      vertex  1.779478e+000 -4.296040e+000 -7.000000e-001
      vertex  2.388445e+000 -2.187063e+000 -7.000000e-001
    endloop
  endfacet
  facet normal  -0.000000e+000  0.000000e+000 -1.000000e+000
    outer loop
      vertex -3.219975e+000 -1.078305e+000 -7.000000e-001
      vertex -3.425000e+000 -1.573280e+000 -7.000000e-001
      vertex -4.296040e+000 -1.779478e+000 -7.000000e-001
    endloop
  endfacet
  facet normal  0.000000e+000  0.000000e+000 -1.000000e+000
    outer loop
      vertex -4.296040e+000 -1.779478e+000 -7.000000e-001
      vertex -3.425000e+000 -1.573280e+000 -7.000000e-001
      vertex -3.219975e+000 -2.068254e+000 -7.000000e-001
    endloop
  endfacet
  facet normal  -0.000000e+000  0.000000e+000 -1.000000e+000
    outer loop
      vertex -4.296040e+000 -1.779478e+000 -7.000000e-001
      vertex -3.219975e+000 -2.068254e+000 -7.000000e-001
      vertex -3.288047e+000 -3.288047e+000 -7.000000e-001
    endloop
  endfacet
  facet normal -9.469302e-001  3.214393e-001  0.000000e+000
    outer loop
      vertex -4.296040e+000  1.779478e+000  0.000000e+000
      vertex -4.296040e+000  1.779478e+000 -7.000000e-001
      vertex -4.491555e+000  1.203509e+000 -7.000000e-001
    endloop
  endfacet
  facet normal -9.745373e-001  1.938471e-001  1.126954e-001
    outer loop
      vertex -4.296040e+000  1.779478e+000  0.000000e+000
      vertex -4.491555e+000  1.203509e+000 -7.000000e-001
      vertex -4.610219e+000  6.069468e-001 -7.000000e-001
    endloop
  endfacet
  facet normal -9.452309e-001  6.195398e-002  3.204689e-001
    outer loop
      vertex -4.296040e+000  1.779478e+000  0.000000e+000
      vertex -4.610219e+000  6.069468e-001 -7.000000e-001
      vertex -4.650000e+000  5.694608e-016 -7.000000e-001
    endloop
  endfacet
  facet normal -9.807853e-001  1.950902e-001  0.000000e+000
    outer loop
      vertex -4.296040e+000  1.779478e+000  0.000000e+000
      vertex -4.650000e+000  5.694608e-016 -7.000000e-001
      vertex -4.650000e+000  5.694608e-016  0.000000e+000
    endloop
  endfacet
  facet normal -7.518399e-001  6.593458e-001  0.000000e+000
    outer loop
      vertex -3.288047e+000  3.288047e+000  0.000000e+000
      vertex -3.288047e+000  3.288047e+000 -7.000000e-001
      vertex -3.689093e+000  2.830741e+000 -7.000000e-001
    endloop
  endfacet
  facet normal -8.261729e-001  5.520309e-001  1.126954e-001
    outer loop
      vertex -3.288047e+000  3.288047e+000  0.000000e+000
      vertex -3.689093e+000  2.830741e+000 -7.000000e-001
      vertex -4.027018e+000  2.325000e+000 -7.000000e-001
    endloop
  endfacet
  facet normal -8.495706e-001  4.189623e-001  3.204689e-001
    outer loop
      vertex -3.288047e+000  3.288047e+000  0.000000e+000
      vertex -4.027018e+000  2.325000e+000 -7.000000e-001
      vertex -4.296040e+000  1.779478e+000 -7.000000e-001
    endloop
  endfacet
  facet normal -8.314696e-001  5.555703e-001  0.000000e+000
    outer loop
      vertex -3.288047e+000  3.288047e+000  0.000000e+000
      vertex -4.296040e+000  1.779478e+000 -7.000000e-001
      vertex -4.296040e+000  1.779478e+000  0.000000e+000
    endloop
  endfacet
  facet normal -4.422891e-001  8.968726e-001  0.000000e+000
    outer loop
      vertex -1.779478e+000  4.296040e+000  0.000000e+000
      vertex -1.779478e+000  4.296040e+000 -7.000000e-001
      vertex -2.325000e+000  4.027018e+000 -7.000000e-001
    endloop
  endfacet
  facet normal -5.520309e-001  8.261729e-001  1.126948e-001
    outer loop
      vertex -1.779478e+000  4.296040e+000  0.000000e+000
      vertex -2.325000e+000  4.027018e+000 -7.000000e-001
      vertex -2.830741e+000  3.689093e+000 -7.000000e-001
    endloop
  endfacet
  facet normal -6.245711e-001  7.121869e-001  3.204696e-001
    outer loop
      vertex -1.779478e+000  4.296040e+000  0.000000e+000
      vertex -2.830741e+000  3.689093e+000 -7.000000e-001
      vertex -3.288047e+000  3.288047e+000 -7.000000e-001
    endloop
  endfacet
  facet normal -5.555703e-001  8.314696e-001  0.000000e+000
    outer loop
      vertex -1.779478e+000  4.296040e+000  0.000000e+000
      vertex -3.288047e+000  3.288047e+000 -7.000000e-001
      vertex -3.288047e+000  3.288047e+000  0.000000e+000
    endloop
  endfacet
  facet normal -6.540342e-002  9.978589e-001  0.000000e+000
    outer loop
      vertex  2.847304e-016  4.650000e+000  0.000000e+000
      vertex  2.847304e-016  4.650000e+000 -7.000000e-001
      vertex -6.069468e-001  4.610219e+000 -7.000000e-001
    endloop
  endfacet
  facet normal -1.938472e-001  9.745374e-001  1.126947e-001
    outer loop
      vertex  2.847304e-016  4.650000e+000  0.000000e+000
      vertex -6.069468e-001  4.610219e+000 -7.000000e-001
      vertex -1.203509e+000  4.491555e+000 -7.000000e-001
    endloop
  endfacet
  facet normal -3.044862e-001  8.969879e-001  3.204695e-001
    outer loop
      vertex  2.847304e-016  4.650000e+000  0.000000e+000
      vertex -1.203509e+000  4.491555e+000 -7.000000e-001
      vertex -1.779478e+000  4.296040e+000 -7.000000e-001
    endloop
  endfacet
  facet normal -1.950902e-001  9.807853e-001  0.000000e+000
    outer loop
      vertex  2.847304e-016  4.650000e+000  0.000000e+000
      vertex -1.779478e+000  4.296040e+000 -7.000000e-001
      vertex -1.779478e+000  4.296040e+000  0.000000e+000
    endloop
  endfacet
  facet normal  3.214393e-001  9.469302e-001  -0.000000e+000
    outer loop
      vertex  1.779478e+000  4.296040e+000  0.000000e+000
      vertex  1.779478e+000  4.296040e+000 -7.000000e-001
      vertex  1.203509e+000  4.491555e+000 -7.000000e-001
    endloop
  endfacet
  facet normal  1.938471e-001  9.745373e-001  1.126954e-001
    outer loop
      vertex  1.779478e+000  4.296040e+000  0.000000e+000
      vertex  1.203509e+000  4.491555e+000 -7.000000e-001
      vertex  6.069468e-001  4.610219e+000 -7.000000e-001
    endloop
  endfacet
  facet normal  6.195398e-002  9.452309e-001  3.204689e-001
    outer loop
      vertex  1.779478e+000  4.296040e+000  0.000000e+000
      vertex  6.069468e-001  4.610219e+000 -7.000000e-001
      vertex  2.847304e-016  4.650000e+000 -7.000000e-001
    endloop
  endfacet
  facet normal  1.950902e-001  9.807853e-001  -0.000000e+000
    outer loop
      vertex  1.779478e+000  4.296040e+000  0.000000e+000
      vertex  2.847304e-016  4.650000e+000 -7.000000e-001
      vertex  2.847304e-016  4.650000e+000  0.000000e+000
    endloop
  endfacet
  facet normal  6.593458e-001  7.518399e-001  -0.000000e+000
    outer loop
      vertex  3.288047e+000  3.288047e+000  0.000000e+000
      vertex  3.288047e+000  3.288047e+000 -7.000000e-001
      vertex  2.830741e+000  3.689093e+000 -7.000000e-001
    endloop
  endfacet
  facet normal  5.520309e-001  8.261729e-001  1.126954e-001
    outer loop
      vertex  3.288047e+000  3.288047e+000  0.000000e+000
      vertex  2.830741e+000  3.689093e+000 -7.000000e-001
      vertex  2.325000e+000  4.027018e+000 -7.000000e-001
    endloop
  endfacet
  facet normal  4.189623e-001  8.495706e-001  3.204689e-001
    outer loop
      vertex  3.288047e+000  3.288047e+000  0.000000e+000
      vertex  2.325000e+000  4.027018e+000 -7.000000e-001
      vertex  1.779478e+000  4.296040e+000 -7.000000e-001
    endloop
  endfacet
  facet normal  5.555703e-001  8.314696e-001  -0.000000e+000
    outer loop
      vertex  3.288047e+000  3.288047e+000  0.000000e+000
      vertex  1.779478e+000  4.296040e+000 -7.000000e-001
      vertex  1.779478e+000  4.296040e+000  0.000000e+000
    endloop
  endfacet
  facet normal  8.968726e-001  4.422891e-001  -0.000000e+000
    outer loop
      vertex  4.296040e+000  1.779478e+000  0.000000e+000
      vertex  4.296040e+000  1.779478e+000 -7.000000e-001
      vertex  4.027018e+000  2.325000e+000 -7.000000e-001
    endloop
  endfacet
  facet normal  8.261729e-001  5.520309e-001  1.126948e-001
    outer loop
      vertex  4.296040e+000  1.779478e+000  0.000000e+000
      vertex  4.027018e+000  2.325000e+000 -7.000000e-001
      vertex  3.689093e+000  2.830741e+000 -7.000000e-001
    endloop
  endfacet
  facet normal  7.121869e-001  6.245711e-001  3.204696e-001
    outer loop
      vertex  4.296040e+000  1.779478e+000  0.000000e+000
      vertex  3.689093e+000  2.830741e+000 -7.000000e-001
      vertex  3.288047e+000  3.288047e+000 -7.000000e-001
    endloop
  endfacet
  facet normal  8.314696e-001  5.555703e-001  -0.000000e+000
    outer loop
      vertex  4.296040e+000  1.779478e+000  0.000000e+000
      vertex  3.288047e+000  3.288047e+000 -7.000000e-001
      vertex  3.288047e+000  3.288047e+000  0.000000e+000
    endloop
  endfacet
  facet normal  9.978589e-001  6.540342e-002  -0.000000e+000
    outer loop
      vertex  4.650000e+000  0.000000e+000  0.000000e+000
      vertex  4.650000e+000  0.000000e+000 -7.000000e-001
      vertex  4.610219e+000  6.069468e-001 -7.000000e-001
    endloop
  endfacet
  facet normal  9.745374e-001  1.938472e-001  1.126947e-001
    outer loop
      vertex  4.650000e+000  0.000000e+000  0.000000e+000
      vertex  4.610219e+000  6.069468e-001 -7.000000e-001
      vertex  4.491555e+000  1.203509e+000 -7.000000e-001
    endloop
  endfacet
  facet normal  8.969879e-001  3.044862e-001  3.204695e-001
    outer loop
      vertex  4.650000e+000  0.000000e+000  0.000000e+000
      vertex  4.491555e+000  1.203509e+000 -7.000000e-001
      vertex  4.296040e+000  1.779478e+000 -7.000000e-001
    endloop
  endfacet
  facet normal  9.807853e-001  1.950902e-001  -0.000000e+000
    outer loop
      vertex  4.650000e+000  0.000000e+000  0.000000e+000
      vertex  4.296040e+000  1.779478e+000 -7.000000e-001
      vertex  4.296040e+000  1.779478e+000  0.000000e+000
    endloop
  endfacet
  facet normal  9.807853e-001 -1.950902e-001  0.000000e+000
    outer loop
      vertex  4.650000e+000  0.000000e+000 -7.000000e-001
      vertex  4.650000e+000  0.000000e+000  0.000000e+000
      vertex  4.296040e+000 -1.779478e+000 -7.000000e-001
    endloop
  endfacet
  facet normal  9.807853e-001 -1.950902e-001  0.000000e+000
    outer loop
      vertex  4.296040e+000 -1.779478e+000 -7.000000e-001
      vertex  4.650000e+000  0.000000e+000  0.000000e+000
      vertex  4.296040e+000 -1.779478e+000  0.000000e+000
    endloop
  endfacet
  facet normal  8.314696e-001 -5.555703e-001  0.000000e+000
    outer loop
      vertex  4.296040e+000 -1.779478e+000 -7.000000e-001
      vertex  4.296040e+000 -1.779478e+000  0.000000e+000
      vertex  3.288047e+000 -3.288047e+000 -7.000000e-001
    endloop
  endfacet
  facet normal  8.314696e-001 -5.555703e-001  0.000000e+000
    outer loop
      vertex  3.288047e+000 -3.288047e+000 -7.000000e-001
      vertex  4.296040e+000 -1.779478e+000  0.000000e+000
      vertex  3.288047e+000 -3.288047e+000  0.000000e+000
    endloop
  endfacet
  facet normal  5.555703e-001 -8.314696e-001  0.000000e+000
    outer loop
      vertex  3.288047e+000 -3.288047e+000 -7.000000e-001
      vertex  3.288047e+000 -3.288047e+000  0.000000e+000
      vertex  1.779478e+000 -4.296040e+000 -7.000000e-001
    endloop
  endfacet
  facet normal  5.555703e-001 -8.314696e-001  0.000000e+000
    outer loop
      vertex  1.779478e+000 -4.296040e+000 -7.000000e-001
      vertex  3.288047e+000 -3.288047e+000  0.000000e+000
      vertex  1.779478e+000 -4.296040e+000  0.000000e+000
    endloop
  endfacet
  facet normal  1.950902e-001 -9.807853e-001  0.000000e+000
    outer loop
      vertex  1.779478e+000 -4.296040e+000 -7.000000e-001
      vertex  1.779478e+000 -4.296040e+000  0.000000e+000
      vertex -4.984221e-015 -4.650000e+000 -7.000000e-001
    endloop
  endfacet
  facet normal  1.950902e-001 -9.807853e-001  0.000000e+000
    outer loop
      vertex -4.984221e-015 -4.650000e+000 -7.000000e-001
      vertex  1.779478e+000 -4.296040e+000  0.000000e+000
      vertex -4.984221e-015 -4.650000e+000  0.000000e+000
    endloop
  endfacet
  facet normal -1.950902e-001 -9.807853e-001  -0.000000e+000
    outer loop
      vertex -4.984221e-015 -4.650000e+000 -7.000000e-001
      vertex -4.984221e-015 -4.650000e+000  0.000000e+000
      vertex -1.779478e+000 -4.296040e+000 -7.000000e-001
    endloop
  endfacet
  facet normal -1.950902e-001 -9.807853e-001  0.000000e+000
    outer loop
      vertex -1.779478e+000 -4.296040e+000 -7.000000e-001
      vertex -4.984221e-015 -4.650000e+000  0.000000e+000
      vertex -1.779478e+000 -4.296040e+000  0.000000e+000
    endloop
  endfacet
  facet normal -5.555703e-001 -8.314696e-001  -0.000000e+000
    outer loop
      vertex -1.779478e+000 -4.296040e+000 -7.000000e-001
      vertex -1.779478e+000 -4.296040e+000  0.000000e+000
      vertex -3.288047e+000 -3.288047e+000 -7.000000e-001
    endloop
  endfacet
  facet normal -5.555703e-001 -8.314696e-001  0.000000e+000
    outer loop
      vertex -3.288047e+000 -3.288047e+000 -7.000000e-001
      vertex -1.779478e+000 -4.296040e+000  0.000000e+000
      vertex -3.288047e+000 -3.288047e+000  0.000000e+000
    endloop
  endfacet
  facet normal -8.314696e-001 -5.555703e-001  -0.000000e+000
    outer loop
      vertex -3.288047e+000 -3.288047e+000 -7.000000e-001
      vertex -3.288047e+000 -3.288047e+000  0.000000e+000
      vertex -4.296040e+000 -1.779478e+000 -7.000000e-001
    endloop
  endfacet
  facet normal -8.314696e-001 -5.555703e-001  0.000000e+000
    outer loop
      vertex -4.296040e+000 -1.779478e+000 -7.000000e-001
      vertex -3.288047e+000 -3.288047e+000  0.000000e+000
      vertex -4.296040e+000 -1.779478e+000  0.000000e+000
    endloop
  endfacet
  facet normal -9.807853e-001 -1.950902e-001  -0.000000e+000
    outer loop
      vertex -4.296040e+000 -1.779478e+000 -7.000000e-001
      vertex -4.296040e+000 -1.779478e+000  0.000000e+000
      vertex -4.650000e+000  5.694608e-016 -7.000000e-001
    endloop
  endfacet
  facet normal -9.807853e-001 -1.950902e-001  0.000000e+000
    outer loop
      vertex -4.650000e+000  5.694608e-016 -7.000000e-001
      vertex -4.296040e+000 -1.779478e+000  0.000000e+000
      vertex -4.650000e+000  5.694608e-016  0.000000e+000
    endloop
  endfacet
  facet normal -8.287973e-001  4.785062e-001 -2.900459e-001
    outer loop
      vertex -4.231789e+000  7.002211e-001 -8.538827e-001
      vertex -2.708778e+000  3.264086e+000 -9.760764e-001
      vertex -4.181170e+000  7.138277e-001 -9.760764e-001
    endloop
  endfacet
  facet normal -8.287979e-001  4.785067e-001 -2.900435e-001
    outer loop
      vertex -2.708778e+000  3.264086e+000 -9.760764e-001
      vertex -4.231789e+000  7.002211e-001 -8.538827e-001
      vertex -2.722304e+000  3.314726e+000 -8.538827e-001
    endloop
  endfacet
  facet normal -6.766403e-001  3.906584e-001 -6.241346e-001
    outer loop
      vertex -2.722304e+000  3.314726e+000 -8.538827e-001
      vertex -4.231789e+000  7.002211e-001 -8.538827e-001
      vertex -4.315966e+000  6.776657e-001 -7.767422e-001
    endloop
  endfacet
  facet normal -6.766408e-001  3.906588e-001 -6.241338e-001
    outer loop
      vertex -2.722304e+000  3.314726e+000 -8.538827e-001
      vertex -4.315966e+000  6.776657e-001 -7.767422e-001
      vertex -2.744859e+000  3.398903e+000 -7.767422e-001
    endloop
  endfacet
  facet normal -3.097226e-001  1.788184e-001 -9.338608e-001
    outer loop
      vertex -2.744859e+000  3.398903e+000 -7.767422e-001
      vertex -4.315966e+000  6.776657e-001 -7.767422e-001
      vertex -4.589703e+000  6.043184e-001 -7.000000e-001
    endloop
  endfacet
  facet normal -3.097221e-001  1.788181e-001 -9.338610e-001
    outer loop
      vertex -2.744859e+000  3.398903e+000 -7.767422e-001
      vertex -4.589703e+000  6.043184e-001 -7.000000e-001
      vertex -2.818207e+000  3.672640e+000 -7.000000e-001
    endloop
  endfacet
  facet normal  4.787771e-001  8.285282e-001 -2.903683e-001
    outer loop
      vertex -2.722304e+000  3.314726e+000 -8.538827e-001
      vertex  4.234460e-015  1.700857e+000 -9.701489e-001
      vertex -2.708778e+000  3.264086e+000 -9.760764e-001
    endloop
  endfacet
  facet normal  4.804543e-001  8.307006e-001 -2.812478e-001
    outer loop
      vertex  4.234460e-015  1.700857e+000 -9.701489e-001
      vertex -2.722304e+000  3.314726e+000 -8.538827e-001
      vertex -1.313540e-007  1.736819e+000 -8.639306e-001
    endloop
  endfacet
  facet normal  3.899527e-001  6.767471e-001 -6.244600e-001
    outer loop
      vertex -1.313540e-007  1.736819e+000 -8.639306e-001
      vertex -2.722304e+000  3.314726e+000 -8.538827e-001
      vertex -2.744859e+000  3.398903e+000 -7.767422e-001
    endloop
  endfacet
  facet normal  3.987182e-001  6.901455e-001 -6.039231e-001
    outer loop
      vertex -1.313540e-007  1.736819e+000 -8.639306e-001
      vertex -2.744859e+000  3.398903e+000 -7.767422e-001
      vertex  1.144917e-016  1.810800e+000 -7.793866e-001
    endloop
  endfacet
  facet normal  1.782308e-001  3.096073e-001 -9.340113e-001
    outer loop
      vertex  1.144917e-016  1.810800e+000 -7.793866e-001
      vertex -2.744859e+000  3.398903e+000 -7.767422e-001
      vertex -2.818207e+000  3.672640e+000 -7.000000e-001
    endloop
  endfacet
  facet normal  1.818728e-001  3.150129e-001 -9.314983e-001
    outer loop
      vertex  1.144917e-016  1.810800e+000 -7.793866e-001
      vertex -2.818207e+000  3.672640e+000 -7.000000e-001
      vertex  2.100929e-016  2.045548e+000 -7.000000e-001
    endloop
  endfacet
  facet normal -2.332135e-001  4.001637e-001 -8.862734e-001
    outer loop
      vertex  2.738499e+000  3.375151e+000 -7.936693e-001
      vertex  1.144917e-016  1.810800e+000 -7.793866e-001
      vertex  2.802082e+000  3.612461e+000 -7.032523e-001
    endloop
  endfacet
  facet normal -1.773830e-001  3.152757e-001 -9.322749e-001
    outer loop
      vertex  2.802082e+000  3.612461e+000 -7.032523e-001
      vertex  1.144917e-016  1.810800e+000 -7.793866e-001
      vertex  2.100929e-016  2.045548e+000 -7.000000e-001
    endloop
  endfacet
  facet normal -3.681167e-002  6.375968e-002 -9.972861e-001
    outer loop
      vertex  2.802082e+000  3.612461e+000 -7.032523e-001
      vertex  2.100929e-016  2.045548e+000 -7.000000e-001
      vertex  2.818207e+000  3.672640e+000 -7.000000e-001
    endloop
  endfacet
  facet normal -4.208103e-001  7.317610e-001 -5.361384e-001
    outer loop
      vertex  2.738499e+000  3.375151e+000 -7.936693e-001
      vertex  2.715900e+000  3.290825e+000 -8.910257e-001
      vertex  1.144917e-016  1.810800e+000 -7.793866e-001
    endloop
  endfacet
  facet normal -4.005665e-001  6.895400e-001 -6.033915e-001
    outer loop
      vertex  1.144917e-016  1.810800e+000 -7.793866e-001
      vertex  2.715900e+000  3.290825e+000 -8.910257e-001
      vertex -1.313540e-007  1.736819e+000 -8.639306e-001
    endloop
  endfacet
  facet normal -4.846130e-001  8.428679e-001 -2.339315e-001
    outer loop
      vertex  2.715900e+000  3.290825e+000 -8.910257e-001
      vertex  2.708893e+000  3.264837e+000 -9.701489e-001
      vertex -1.313540e-007  1.736819e+000 -8.639306e-001
    endloop
  endfacet
  facet normal -4.798004e-001  8.310388e-001 -2.813648e-001
    outer loop
      vertex -1.313540e-007  1.736819e+000 -8.639306e-001
      vertex  2.708893e+000  3.264837e+000 -9.701489e-001
      vertex  4.234460e-015  1.700857e+000 -9.701489e-001
    endloop
  endfacet
  facet normal  4.024564e-001  2.297926e-001 -8.861287e-001
    outer loop
      vertex  2.802082e+000  3.612461e+000 -7.032523e-001
      vertex  4.315966e+000  6.776657e-001 -7.767422e-001
      vertex  2.738499e+000  3.375151e+000 -7.936693e-001
    endloop
  endfacet
  facet normal  6.764820e-001  3.916875e-001 -6.236610e-001
    outer loop
      vertex  2.738499e+000  3.375151e+000 -7.936693e-001
      vertex  4.315966e+000  6.776657e-001 -7.767422e-001
      vertex  4.231789e+000  7.002211e-001 -8.538827e-001
    endloop
  endfacet
  facet normal  7.326429e-001  4.210382e-001 -5.347532e-001
    outer loop
      vertex  2.738499e+000  3.375151e+000 -7.936693e-001
      vertex  4.231789e+000  7.002211e-001 -8.538827e-001
      vertex  2.715900e+000  3.290825e+000 -8.910257e-001
    endloop
  endfacet
  facet normal  8.279427e-001  4.803192e-001 -2.894898e-001
    outer loop
      vertex  2.715900e+000  3.290825e+000 -8.910257e-001
      vertex  4.231789e+000  7.002211e-001 -8.538827e-001
      vertex  4.181170e+000  7.138277e-001 -9.760764e-001
    endloop
  endfacet
  facet normal  8.417621e-001  4.863553e-001 -2.342969e-001
    outer loop
      vertex  2.715900e+000  3.290825e+000 -8.910257e-001
      vertex  4.181170e+000  7.138277e-001 -9.760764e-001
      vertex  2.708893e+000  3.264837e+000 -9.701489e-001
    endloop
  endfacet
  facet normal  6.376001e-002  3.681185e-002 -9.972860e-001
    outer loop
      vertex  2.818207e+000  3.672640e+000 -7.000000e-001
      vertex  4.589703e+000  6.043184e-001 -7.000000e-001
      vertex  2.802082e+000  3.612461e+000 -7.032523e-001
    endloop
  endfacet
  facet normal  3.106569e-001  1.836029e-001 -9.326212e-001
    outer loop
      vertex  2.802082e+000  3.612461e+000 -7.032523e-001
      vertex  4.589703e+000  6.043184e-001 -7.000000e-001
      vertex  4.315966e+000  6.776657e-001 -7.767422e-001
    endloop
  endfacet
  facet normal -1.274153e-002 -2.603868e-002 -9.995798e-001
    outer loop
      vertex  1.770118e+000 -1.021978e+000 -7.000031e-001
      vertex  4.315966e+000  6.776657e-001 -7.767422e-001
      vertex  1.771496e+000 -1.022774e+000 -7.000000e-001
    endloop
  endfacet
  facet normal  1.788186e-001 -3.097229e-001 -9.338607e-001
    outer loop
      vertex  4.315966e+000  6.776657e-001 -7.767422e-001
      vertex  4.589703e+000  6.043184e-001 -7.000000e-001
      vertex  1.771496e+000 -1.022774e+000 -7.000000e-001
    endloop
  endfacet
  facet normal  1.832141e-001 -3.164546e-001 -9.307466e-001
    outer loop
      vertex  1.770118e+000 -1.021978e+000 -7.000031e-001
      vertex  1.568199e+000 -9.054002e-001 -7.793866e-001
      vertex  4.315966e+000  6.776657e-001 -7.767422e-001
    endloop
  endfacet
  facet normal  3.983248e-001 -6.903734e-001 -6.039221e-001
    outer loop
      vertex  4.315966e+000  6.776657e-001 -7.767422e-001
      vertex  1.568199e+000 -9.054002e-001 -7.793866e-001
      vertex  1.504129e+000 -8.684093e-001 -8.639306e-001
    endloop
  endfacet
  facet normal  3.911038e-001 -6.760825e-001 -6.244600e-001
    outer loop
      vertex  4.315966e+000  6.776657e-001 -7.767422e-001
      vertex  1.504129e+000 -8.684093e-001 -8.639306e-001
      vertex  4.231789e+000  7.002211e-001 -8.538827e-001
    endloop
  endfacet
  facet normal  4.791804e-001 -8.314356e-001 -2.812490e-001
    outer loop
      vertex  4.231789e+000  7.002211e-001 -8.538827e-001
      vertex  1.504129e+000 -8.684093e-001 -8.639306e-001
      vertex  1.472985e+000 -8.504283e-001 -9.701489e-001
    endloop
  endfacet
  facet normal  4.781379e-001 -8.288970e-001 -2.903683e-001
    outer loop
      vertex  4.231789e+000  7.002211e-001 -8.538827e-001
      vertex  1.472985e+000 -8.504283e-001 -9.701489e-001
      vertex  4.181170e+000  7.138277e-001 -9.760764e-001
    endloop
  endfacet
  facet normal  2.291391e-003  0.000000e+000 -9.999974e-001
    outer loop
      vertex  1.771496e+000 -1.022774e+000 -7.000000e-001
      vertex  1.771496e+000 -4.276958e+000 -7.000000e-001
      vertex  1.770118e+000 -1.021978e+000 -7.000031e-001
    endloop
  endfacet
  facet normal  7.365363e-002  3.022830e-005 -9.972838e-001
    outer loop
      vertex  1.770118e+000 -1.021978e+000 -7.000031e-001
      vertex  1.771496e+000 -4.276958e+000 -7.000000e-001
      vertex  1.727442e+000 -4.232904e+000 -7.032523e-001
    endloop
  endfacet
  facet normal  3.639342e-001 -3.894479e-003 -9.314166e-001
    outer loop
      vertex  1.770118e+000 -1.021978e+000 -7.000031e-001
      vertex  1.727442e+000 -4.232904e+000 -7.032523e-001
      vertex  1.568199e+000 -9.054002e-001 -7.793866e-001
    endloop
  endfacet
  facet normal  4.631585e-001  1.886945e-003 -8.862734e-001
    outer loop
      vertex  1.727442e+000 -4.232904e+000 -7.032523e-001
      vertex  1.553717e+000 -4.059186e+000 -7.936693e-001
      vertex  1.568199e+000 -9.054002e-001 -7.793866e-001
    endloop
  endfacet
  facet normal  8.441285e-001 -1.448093e-003 -5.361389e-001
    outer loop
      vertex  1.568199e+000 -9.054002e-001 -7.793866e-001
      vertex  1.553717e+000 -4.059186e+000 -7.936693e-001
      vertex  1.491988e+000 -3.997451e+000 -8.910257e-001
    endloop
  endfacet
  facet normal  7.974426e-001  2.130744e-003 -6.033910e-001
    outer loop
      vertex  1.568199e+000 -9.054002e-001 -7.793866e-001
      vertex  1.491988e+000 -3.997451e+000 -8.910257e-001
      vertex  1.504129e+000 -8.684093e-001 -8.639306e-001
    endloop
  endfacet
  facet normal  9.722519e-001 -1.746781e-003 -2.339299e-001
    outer loop
      vertex  1.504129e+000 -8.684093e-001 -8.639306e-001
      vertex  1.491988e+000 -3.997451e+000 -8.910257e-001
      vertex  1.472985e+000 -3.978388e+000 -9.701489e-001
    endloop
  endfacet
  facet normal  9.596009e-001  0.000000e+000 -2.813647e-001
    outer loop
      vertex  1.504129e+000 -8.684093e-001 -8.639306e-001
      vertex  1.472985e+000 -3.978388e+000 -9.701489e-001
      vertex  1.472985e+000 -8.504283e-001 -9.701489e-001
    endloop
  endfacet
  facet normal -2.222031e-003 -4.634345e-001 -8.861284e-001
    outer loop
      vertex  1.553717e+000 -4.059186e+000 -7.936693e-001
      vertex  1.727442e+000 -4.232904e+000 -7.032523e-001
      vertex -1.571107e+000 -4.076569e+000 -7.767422e-001
    endloop
  endfacet
  facet normal  1.968237e-002 -5.401925e-002 -9.983459e-001
    outer loop
      vertex -1.571107e+000 -4.076569e+000 -7.767422e-001
      vertex  1.727442e+000 -4.232904e+000 -7.032523e-001
      vertex  1.771496e+000 -4.276958e+000 -7.000000e-001
    endloop
  endfacet
  facet normal  -0.000000e+000 -3.576363e-001 -9.338610e-001
    outer loop
      vertex -1.571107e+000 -4.076569e+000 -7.767422e-001
      vertex  1.771496e+000 -4.276958e+000 -7.000000e-001
      vertex -1.771496e+000 -4.276958e+000 -7.000000e-001
    endloop
  endfacet
  facet normal  9.702521e-004 -7.816946e-001 -6.236606e-001
    outer loop
      vertex -1.571107e+000 -4.076569e+000 -7.767422e-001
      vertex -1.509485e+000 -4.014947e+000 -8.538827e-001
      vertex  1.553717e+000 -4.059186e+000 -7.936693e-001
    endloop
  endfacet
  facet normal -1.691674e-003 -8.450051e-001 -5.347555e-001
    outer loop
      vertex  1.553717e+000 -4.059186e+000 -7.936693e-001
      vertex -1.509485e+000 -4.014947e+000 -8.538827e-001
      vertex  1.491988e+000 -3.997451e+000 -8.910257e-001
    endloop
  endfacet
  facet normal  1.997396e-003 -9.571794e-001 -2.894885e-001
    outer loop
      vertex -1.509485e+000 -4.014947e+000 -8.538827e-001
      vertex -1.472392e+000 -3.977914e+000 -9.760764e-001
      vertex  1.491988e+000 -3.997451e+000 -8.910257e-001
    endloop
  endfacet
  facet normal  3.149905e-004 -9.721662e-001 -2.342920e-001
    outer loop
      vertex  1.491988e+000 -3.997451e+000 -8.910257e-001
      vertex -1.472392e+000 -3.977914e+000 -9.760764e-001
      vertex  1.472985e+000 -3.978388e+000 -9.701489e-001
    endloop
  endfacet
  facet normal -1.617789e-002  2.405805e-002 -9.995797e-001
    outer loop
      vertex -1.770118e+000 -1.021978e+000 -7.000031e-001
      vertex -1.571107e+000 -4.076569e+000 -7.767422e-001
      vertex -1.771496e+000 -1.022774e+000 -7.000000e-001
    endloop
  endfacet
  facet normal -3.576369e-001  0.000000e+000 -9.338607e-001
    outer loop
      vertex -1.571107e+000 -4.076569e+000 -7.767422e-001
      vertex -1.771496e+000 -4.276958e+000 -7.000000e-001
      vertex -1.771496e+000 -1.022774e+000 -7.000000e-001
    endloop
  endfacet
  facet normal -3.656648e-001 -4.408125e-004 -9.307465e-001
    outer loop
      vertex -1.770118e+000 -1.021978e+000 -7.000031e-001
      vertex -1.568199e+000 -9.054002e-001 -7.793866e-001
      vertex -1.571107e+000 -4.076569e+000 -7.767422e-001
    endloop
  endfacet
  facet normal -7.970427e-001  2.273176e-004 -6.039230e-001
    outer loop
      vertex -1.571107e+000 -4.076569e+000 -7.767422e-001
      vertex -1.568199e+000 -9.054002e-001 -7.793866e-001
      vertex -1.504129e+000 -8.684096e-001 -8.639306e-001
    endloop
  endfacet
  facet normal -7.810563e-001 -6.645804e-004 -6.244603e-001
    outer loop
      vertex -1.571107e+000 -4.076569e+000 -7.767422e-001
      vertex -1.504129e+000 -8.684096e-001 -8.639306e-001
      vertex -1.509485e+000 -4.014947e+000 -8.538827e-001
    endloop
  endfacet
  facet normal -9.596348e-001  7.353858e-004 -2.812481e-001
    outer loop
      vertex -1.509485e+000 -4.014947e+000 -8.538827e-001
      vertex -1.504129e+000 -8.684096e-001 -8.639306e-001
      vertex -1.472985e+000 -8.504283e-001 -9.701489e-001
    endloop
  endfacet
  facet normal -9.569150e-001  3.689505e-004 -2.903678e-001
    outer loop
      vertex -1.509485e+000 -4.014947e+000 -8.538827e-001
      vertex -1.472985e+000 -8.504283e-001 -9.701489e-001
      vertex -1.472392e+000 -3.977914e+000 -9.760764e-001
    endloop
  endfacet
  facet normal -1.145654e-003 -1.984331e-003 -9.999974e-001
    outer loop
      vertex -1.771496e+000 -1.022774e+000 -7.000000e-001
      vertex -4.589703e+000  6.043184e-001 -7.000000e-001
      vertex -1.770118e+000 -1.021978e+000 -7.000031e-001
    endloop
  endfacet
  facet normal -1.787538e-001 -3.099118e-001 -9.338104e-001
    outer loop
      vertex -1.770118e+000 -1.021978e+000 -7.000031e-001
      vertex -4.589703e+000  6.043184e-001 -7.000000e-001
      vertex -4.315966e+000  6.776657e-001 -7.767422e-001
    endloop
  endfacet
  facet normal -1.832141e-001 -3.164544e-001 -9.307466e-001
    outer loop
      vertex -1.770118e+000 -1.021978e+000 -7.000031e-001
      vertex -4.315966e+000  6.776657e-001 -7.767422e-001
      vertex -1.568199e+000 -9.054002e-001 -7.793866e-001
    endloop
  endfacet
  facet normal -3.905259e-001 -6.768031e-001 -6.240409e-001
    outer loop
      vertex -1.568199e+000 -9.054002e-001 -7.793866e-001
      vertex -4.315966e+000  6.776657e-001 -7.767422e-001
      vertex -4.231789e+000  7.002211e-001 -8.538827e-001
    endloop
  endfacet
  facet normal -3.989333e-001 -6.898270e-001 -6.041448e-001
    outer loop
      vertex -1.568199e+000 -9.054002e-001 -7.793866e-001
      vertex -4.231789e+000  7.002211e-001 -8.538827e-001
      vertex -1.504129e+000 -8.684096e-001 -8.639306e-001
    endloop
  endfacet
  facet normal -4.778637e-001 -8.290880e-001 -2.902746e-001
    outer loop
      vertex -1.504129e+000 -8.684096e-001 -8.639306e-001
      vertex -4.231789e+000  7.002211e-001 -8.538827e-001
      vertex -4.181170e+000  7.138277e-001 -9.760764e-001
    endloop
  endfacet
  facet normal -4.795046e-001 -8.312288e-001 -2.813078e-001
    outer loop
      vertex -1.504129e+000 -8.684096e-001 -8.639306e-001
      vertex -4.181170e+000  7.138277e-001 -9.760764e-001
      vertex -1.472985e+000 -8.504283e-001 -9.701489e-001
    endloop
  endfacet
  facet normal -4.993793e-001  8.649503e-001 -4.981372e-002
    outer loop
      vertex  0.000000e+000  5.773503e-001 -1.169751e+001
      vertex -5.551115e-016  6.919615e-001 -9.707438e+000
      vertex  2.452172e+000  1.993112e+000 -1.169751e+001
    endloop
  endfacet
  facet normal -4.993793e-001  8.649503e-001 -4.981370e-002
    outer loop
      vertex  2.452172e+000  1.993112e+000 -1.169751e+001
      vertex -5.551115e-016  6.919615e-001 -9.707438e+000
      vertex  2.540420e+000  2.158674e+000 -9.707438e+000
    endloop
  endfacet
  facet normal  5.000000e-001  8.660253e-001  0.000000e+000
    outer loop
      vertex -1.482051e+000  1.433013e+000 -2.570000e+001
      vertex -2.452172e+000  1.993112e+000 -1.169751e+001
      vertex  3.053113e-016  5.773503e-001 -2.570000e+001
    endloop
  endfacet
  facet normal  5.000001e-001  8.660254e-001  1.090204e-017
    outer loop
      vertex  3.053113e-016  5.773503e-001 -2.570000e+001
      vertex -2.452172e+000  1.993112e+000 -1.169751e+001
      vertex  0.000000e+000  5.773503e-001 -1.169751e+001
    endloop
  endfacet
  facet normal  4.993793e-001  8.649503e-001 -4.981372e-002
    outer loop
      vertex -5.551115e-016  6.919615e-001 -9.707438e+000
      vertex  0.000000e+000  5.773503e-001 -1.169751e+001
      vertex -2.540420e+000  2.158674e+000 -9.707438e+000
    endloop
  endfacet
  facet normal  4.993793e-001  8.649503e-001 -4.981370e-002
    outer loop
      vertex -2.540420e+000  2.158674e+000 -9.707438e+000
      vertex  0.000000e+000  5.773503e-001 -1.169751e+001
      vertex -2.452172e+000  1.993112e+000 -1.169751e+001
    endloop
  endfacet
  facet normal -5.000000e-001  8.660253e-001  0.000000e+000
    outer loop
      vertex  1.482051e+000  1.433013e+000 -2.570000e+001
      vertex  3.053113e-016  5.773503e-001 -2.570000e+001
      vertex  2.452172e+000  1.993112e+000 -1.169751e+001
    endloop
  endfacet
  facet normal -5.000001e-001  8.660254e-001  0.000000e+000
    outer loop
      vertex  2.452172e+000  1.993112e+000 -1.169751e+001
      vertex  3.053113e-016  5.773503e-001 -2.570000e+001
      vertex  0.000000e+000  5.773503e-001 -1.169751e+001
    endloop
  endfacet
  facet normal  9.987586e-001  0.000000e+000 -4.981372e-002
    outer loop
      vertex  5.000000e-001 -2.886751e-001 -1.169751e+001
      vertex  5.992562e-001 -3.459807e-001 -9.707438e+000
      vertex  5.000000e-001 -3.120199e+000 -1.169751e+001
    endloop
  endfacet
  facet normal  9.987586e-001  0.000000e+000 -4.981372e-002
    outer loop
      vertex  5.000000e-001 -3.120199e+000 -1.169751e+001
      vertex  5.992562e-001 -3.459807e-001 -9.707438e+000
      vertex  5.992562e-001 -3.279405e+000 -9.707438e+000
    endloop
  endfacet
  facet normal  5.000000e-001 -8.660253e-001  0.000000e+000
    outer loop
      vertex  1.982051e+000  5.669873e-001 -2.570000e+001
      vertex  2.952172e+000  1.127087e+000 -1.169751e+001
      vertex  5.000000e-001 -2.886751e-001 -2.570000e+001
    endloop
  endfacet
  facet normal  5.000001e-001 -8.660254e-001  0.000000e+000
    outer loop
      vertex  5.000000e-001 -2.886751e-001 -2.570000e+001
      vertex  2.952172e+000  1.127087e+000 -1.169751e+001
      vertex  5.000000e-001 -2.886751e-001 -1.169751e+001
    endloop
  endfacet
  facet normal  4.993793e-001 -8.649503e-001 -4.981372e-002
    outer loop
      vertex  5.992562e-001 -3.459807e-001 -9.707438e+000
      vertex  5.000000e-001 -2.886751e-001 -1.169751e+001
      vertex  3.139676e+000  1.120731e+000 -9.707438e+000
    endloop
  endfacet
  facet normal  4.993792e-001 -8.649503e-001 -4.981371e-002
    outer loop
      vertex  3.139676e+000  1.120731e+000 -9.707438e+000
      vertex  5.000000e-001 -2.886751e-001 -1.169751e+001
      vertex  2.952172e+000  1.127087e+000 -1.169751e+001
    endloop
  endfacet
  facet normal  1.000000e+000  0.000000e+000  0.000000e+000
    outer loop
      vertex  5.000000e-001 -2.000000e+000 -2.570000e+001
      vertex  5.000000e-001 -2.886751e-001 -2.570000e+001
      vertex  5.000000e-001 -3.120199e+000 -1.169751e+001
    endloop
  endfacet
  facet normal  1.000000e+000  -0.000000e+000  0.000000e+000
    outer loop
      vertex  5.000000e-001 -3.120199e+000 -1.169751e+001
      vertex  5.000000e-001 -2.886751e-001 -2.570000e+001
      vertex  5.000000e-001 -2.886751e-001 -1.169751e+001
    endloop
  endfacet
  facet normal -4.993792e-001 -8.649503e-001 -4.981371e-002
    outer loop
      vertex -5.000000e-001 -2.886751e-001 -1.169751e+001
      vertex -5.992562e-001 -3.459807e-001 -9.707438e+000
      vertex -2.952172e+000  1.127087e+000 -1.169751e+001
    endloop
  endfacet
  facet normal -4.993793e-001 -8.649502e-001 -4.981371e-002
    outer loop
      vertex -2.952172e+000  1.127087e+000 -1.169751e+001
      vertex -5.992562e-001 -3.459807e-001 -9.707438e+000
      vertex -3.139676e+000  1.120731e+000 -9.707438e+000
    endloop
  endfacet
  facet normal -1.000000e+000  0.000000e+000  0.000000e+000
    outer loop
      vertex -5.000000e-001 -2.000000e+000 -2.570000e+001
      vertex -5.000000e-001 -3.120199e+000 -1.169751e+001
      vertex -5.000000e-001 -2.886751e-001 -2.570000e+001
    endloop
  endfacet
  facet normal -1.000000e+000  0.000000e+000  0.000000e+000
    outer loop
      vertex -5.000000e-001 -2.886751e-001 -2.570000e+001
      vertex -5.000000e-001 -3.120199e+000 -1.169751e+001
      vertex -5.000000e-001 -2.886751e-001 -1.169751e+001
    endloop
  endfacet
  facet normal -9.987586e-001  0.000000e+000 -4.981372e-002
    outer loop
      vertex -5.992562e-001 -3.459807e-001 -9.707438e+000
      vertex -5.000000e-001 -2.886751e-001 -1.169751e+001
      vertex -5.992562e-001 -3.279405e+000 -9.707438e+000
    endloop
  endfacet
  facet normal -9.987586e-001  0.000000e+000 -4.981372e-002
    outer loop
      vertex -5.992562e-001 -3.279405e+000 -9.707438e+000
      vertex -5.000000e-001 -2.886751e-001 -1.169751e+001
      vertex -5.000000e-001 -3.120199e+000 -1.169751e+001
    endloop
  endfacet
  facet normal -5.000000e-001 -8.660254e-001  0.000000e+000
    outer loop
      vertex -1.982051e+000  5.669873e-001 -2.570000e+001
      vertex -5.000000e-001 -2.886751e-001 -2.570000e+001
      vertex -2.952172e+000  1.127087e+000 -1.169751e+001
    endloop
  endfacet
  facet normal -5.000001e-001 -8.660254e-001  0.000000e+000
    outer loop
      vertex -2.952172e+000  1.127087e+000 -1.169751e+001
      vertex -5.000000e-001 -2.886751e-001 -2.570000e+001
      vertex -5.000000e-001 -2.886751e-001 -1.169751e+001
    endloop
  endfacet
  facet normal  -0.000000e+000  0.000000e+000 -9.999999e-001
    outer loop
      vertex -1.482051e+000  1.433013e+000 -2.570000e+001
      vertex  3.053113e-016  5.773503e-001 -2.570000e+001
      vertex -1.982051e+000  5.669873e-001 -2.570000e+001
    endloop
  endfacet
  facet normal  0.000000e+000  0.000000e+000 -1.000000e+000
    outer loop
      vertex  1.982051e+000  5.669873e-001 -2.570000e+001
      vertex  5.000000e-001 -2.886751e-001 -2.570000e+001
      vertex -5.000000e-001 -2.886751e-001 -2.570000e+001
    endloop
  endfacet
  facet normal  0.000000e+000  0.000000e+000 -1.000000e+000
    outer loop
      vertex  1.982051e+000  5.669873e-001 -2.570000e+001
      vertex -5.000000e-001 -2.886751e-001 -2.570000e+001
      vertex -1.982051e+000  5.669873e-001 -2.570000e+001
    endloop
  endfacet
  facet normal  0.000000e+000  0.000000e+000 -1.000000e+000
    outer loop
      vertex  1.982051e+000  5.669873e-001 -2.570000e+001
      vertex -1.982051e+000  5.669873e-001 -2.570000e+001
      vertex  3.053113e-016  5.773503e-001 -2.570000e+001
    endloop
  endfacet
  facet normal  0.000000e+000  0.000000e+000 -9.999999e-001
    outer loop
      vertex  1.982051e+000  5.669873e-001 -2.570000e+001
      vertex  3.053113e-016  5.773503e-001 -2.570000e+001
      vertex  1.482051e+000  1.433013e+000 -2.570000e+001
    endloop
  endfacet
  facet normal  0.000000e+000  0.000000e+000 -9.999999e-001
    outer loop
      vertex  5.000000e-001 -2.886751e-001 -2.570000e+001
      vertex  5.000000e-001 -2.000000e+000 -2.570000e+001
      vertex -5.000000e-001 -2.886751e-001 -2.570000e+001
    endloop
  endfacet
  facet normal  0.000000e+000  0.000000e+000 -9.999999e-001
    outer loop
      vertex -5.000000e-001 -2.886751e-001 -2.570000e+001
      vertex  5.000000e-001 -2.000000e+000 -2.570000e+001
      vertex -5.000000e-001 -2.000000e+000 -2.570000e+001
    endloop
  endfacet
  facet normal  0.000000e+000  0.000000e+000  1.000000e+000
    outer loop
      vertex  7.000000e-001  3.146559e+000  0.000000e+000
      vertex  1.779478e+000  4.296040e+000  0.000000e+000
      vertex  4.949747e-001  3.641534e+000  0.000000e+000
    endloop
  endfacet
  facet normal  0.000000e+000  0.000000e+000  1.000000e+000
    outer loop
      vertex  2.528970e+000 -9.012883e-001  0.000000e+000
      vertex  4.949747e-001  2.651584e+000  0.000000e+000
      vertex  2.567544e-016  2.446559e+000  0.000000e+000
    endloop
  endfacet
  facet normal  -0.000000e+000  0.000000e+000  9.999999e-001
    outer loop
      vertex  1.779478e+000  4.296040e+000  0.000000e+000
      vertex  4.282050e-016  3.846559e+000  0.000000e+000
      vertex  4.949747e-001  3.641534e+000  0.000000e+000
    endloop
  endfacet
  facet normal  0.000000e+000  0.000000e+000  1.000000e+000
    outer loop
      vertex -3.288047e+000 -3.288047e+000  0.000000e+000
      vertex -2.725000e+000 -2.273279e+000  0.000000e+000
      vertex -3.219975e+000 -2.068254e+000  0.000000e+000
    endloop
  endfacet
  facet normal  0.000000e+000  0.000000e+000  1.000000e+000
    outer loop
      vertex  2.111216e+000 -1.236724e+000  0.000000e+000
      vertex  2.528970e+000 -9.012883e-001  0.000000e+000
      vertex  2.567544e-016  2.446559e+000  0.000000e+000
    endloop
  endfacet
  facet normal  0.000000e+000  -0.000000e+000  1.000000e+000
    outer loop
      vertex -4.984221e-015 -4.650000e+000  0.000000e+000
      vertex  1.779478e+000 -4.296040e+000  0.000000e+000
      vertex  2.388445e+000 -2.187063e+000  0.000000e+000
    endloop
  endfacet
  facet normal  0.000000e+000  0.000000e+000  9.999999e-001
    outer loop
      vertex -4.984221e-015 -4.650000e+000  0.000000e+000
      vertex  2.388445e+000 -2.187063e+000  0.000000e+000
      vertex  2.053009e+000 -1.769310e+000  0.000000e+000
    endloop
  endfacet
  facet normal  0.000000e+000  -0.000000e+000  9.999999e-001
    outer loop
      vertex -4.984221e-015 -4.650000e+000  0.000000e+000
      vertex  2.053009e+000 -1.769310e+000  0.000000e+000
      vertex  2.111216e+000 -1.236724e+000  0.000000e+000
    endloop
  endfacet
  facet normal  0.000000e+000  0.000000e+000  1.000000e+000
    outer loop
      vertex -4.984221e-015 -4.650000e+000  0.000000e+000
      vertex  2.111216e+000 -1.236724e+000  0.000000e+000
      vertex  2.567544e-016  2.446559e+000  0.000000e+000
    endloop
  endfacet
  facet normal  0.000000e+000  0.000000e+000  1.000000e+000
    outer loop
      vertex -4.984221e-015 -4.650000e+000  0.000000e+000
      vertex  2.567544e-016  2.446559e+000  0.000000e+000
      vertex -2.230025e+000 -1.078305e+000  0.000000e+000
    endloop
  endfacet
  facet normal  0.000000e+000  0.000000e+000  1.000000e+000
    outer loop
      vertex -4.984221e-015 -4.650000e+000  0.000000e+000
      vertex -2.230025e+000 -1.078305e+000  0.000000e+000
      vertex -2.025000e+000 -1.573280e+000  0.000000e+000
    endloop
  endfacet
  facet normal  0.000000e+000  0.000000e+000  9.999999e-001
    outer loop
      vertex -4.984221e-015 -4.650000e+000  0.000000e+000
      vertex -2.025000e+000 -1.573280e+000  0.000000e+000
      vertex -2.230025e+000 -2.068254e+000  0.000000e+000
    endloop
  endfacet
  facet normal  0.000000e+000  0.000000e+000  1.000000e+000
    outer loop
      vertex -4.984221e-015 -4.650000e+000  0.000000e+000
      vertex -2.230025e+000 -2.068254e+000  0.000000e+000
      vertex -2.725000e+000 -2.273279e+000  0.000000e+000
    endloop
  endfacet
  facet normal  0.000000e+000  0.000000e+000  1.000000e+000
    outer loop
      vertex -4.984221e-015 -4.650000e+000  0.000000e+000
      vertex -2.725000e+000 -2.273279e+000  0.000000e+000
      vertex -3.288047e+000 -3.288047e+000  0.000000e+000
    endloop
  endfacet
  facet normal  0.000000e+000  0.000000e+000  1.000000e+000
    outer loop
      vertex -4.984221e-015 -4.650000e+000  0.000000e+000
      vertex -3.288047e+000 -3.288047e+000  0.000000e+000
      vertex -1.779478e+000 -4.296040e+000  0.000000e+000
    endloop
  endfacet
  facet normal  0.000000e+000  -0.000000e+000  1.000000e+000
    outer loop
      vertex -2.725000e+000 -8.732795e-001  0.000000e+000
      vertex -2.230025e+000 -1.078305e+000  0.000000e+000
      vertex  2.567544e-016  2.446559e+000  0.000000e+000
    endloop
  endfacet
  facet normal  0.000000e+000  0.000000e+000  1.000000e+000
    outer loop
      vertex -2.725000e+000 -8.732795e-001  0.000000e+000
      vertex  2.567544e-016  2.446559e+000  0.000000e+000
      vertex -4.949747e-001  2.651584e+000  0.000000e+000
    endloop
  endfacet
  facet normal  0.000000e+000  0.000000e+000  1.000000e+000
    outer loop
      vertex -2.725000e+000 -8.732795e-001  0.000000e+000
      vertex -4.949747e-001  2.651584e+000  0.000000e+000
      vertex -7.000000e-001  3.146559e+000  0.000000e+000
    endloop
  endfacet
  facet normal  0.000000e+000  -0.000000e+000  1.000000e+000
    outer loop
      vertex -2.725000e+000 -8.732795e-001  0.000000e+000
      vertex -7.000000e-001  3.146559e+000  0.000000e+000
      vertex -4.949747e-001  3.641534e+000  0.000000e+000
    endloop
  endfacet
  facet normal  0.000000e+000  0.000000e+000  1.000000e+000
    outer loop
      vertex -4.296040e+000  1.779478e+000  0.000000e+000
      vertex -4.650000e+000  5.694608e-016  0.000000e+000
      vertex -3.288047e+000  3.288047e+000  0.000000e+000
    endloop
  endfacet
  facet normal  0.000000e+000  0.000000e+000  1.000000e+000
    outer loop
      vertex -3.288047e+000  3.288047e+000  0.000000e+000
      vertex -4.650000e+000  5.694608e-016  0.000000e+000
      vertex -2.725000e+000 -8.732795e-001  0.000000e+000
    endloop
  endfacet
  facet normal  0.000000e+000  -0.000000e+000  9.999999e-001
    outer loop
      vertex -3.288047e+000  3.288047e+000  0.000000e+000
      vertex -2.725000e+000 -8.732795e-001  0.000000e+000
      vertex -1.779478e+000  4.296040e+000  0.000000e+000
    endloop
  endfacet
  facet normal  0.000000e+000  0.000000e+000  1.000000e+000
    outer loop
      vertex -1.779478e+000  4.296040e+000  0.000000e+000
      vertex -2.725000e+000 -8.732795e-001  0.000000e+000
      vertex -4.949747e-001  3.641534e+000  0.000000e+000
    endloop
  endfacet
  facet normal  0.000000e+000  -0.000000e+000  1.000000e+000
    outer loop
      vertex -1.779478e+000  4.296040e+000  0.000000e+000
      vertex -4.949747e-001  3.641534e+000  0.000000e+000
      vertex  2.847304e-016  4.650000e+000  0.000000e+000
    endloop
  endfacet
  facet normal  0.000000e+000  0.000000e+000  1.000000e+000
    outer loop
      vertex  2.847304e-016  4.650000e+000  0.000000e+000
      vertex -4.949747e-001  3.641534e+000  0.000000e+000
      vertex  4.282050e-016  3.846559e+000  0.000000e+000
    endloop
  endfacet
  facet normal  0.000000e+000  -0.000000e+000  1.000000e+000
    outer loop
      vertex  2.847304e-016  4.650000e+000  0.000000e+000
      vertex  4.282050e-016  3.846559e+000  0.000000e+000
      vertex  1.779478e+000  4.296040e+000  0.000000e+000
    endloop
  endfacet
  facet normal  0.000000e+000  0.000000e+000  1.000000e+000
    outer loop
      vertex  2.388445e+000 -2.187063e+000  0.000000e+000
      vertex  1.779478e+000 -4.296040e+000  0.000000e+000
      vertex  2.921030e+000 -2.245271e+000  0.000000e+000
    endloop
  endfacet
  facet normal  0.000000e+000  0.000000e+000  9.999999e-001
    outer loop
      vertex  2.921030e+000 -2.245271e+000  0.000000e+000
      vertex  1.779478e+000 -4.296040e+000  0.000000e+000
      vertex  3.288047e+000 -3.288047e+000  0.000000e+000
    endloop
  endfacet
  facet normal  0.000000e+000  -0.000000e+000  1.000000e+000
    outer loop
      vertex  2.921030e+000 -2.245271e+000  0.000000e+000
      vertex  3.288047e+000 -3.288047e+000  0.000000e+000
      vertex  3.338784e+000 -1.909835e+000  0.000000e+000
    endloop
  endfacet
  facet normal  -0.000000e+000  0.000000e+000  1.000000e+000
    outer loop
      vertex  3.338784e+000 -1.909835e+000  0.000000e+000
      vertex  3.288047e+000 -3.288047e+000  0.000000e+000
      vertex  4.296040e+000 -1.779478e+000  0.000000e+000
    endloop
  endfacet
  facet normal  0.000000e+000  0.000000e+000  1.000000e+000
    outer loop
      vertex  3.338784e+000 -1.909835e+000  0.000000e+000
      vertex  4.296040e+000 -1.779478e+000  0.000000e+000
      vertex  3.396991e+000 -1.377249e+000  0.000000e+000
    endloop
  endfacet
  facet normal  0.000000e+000  0.000000e+000  9.999999e-001
    outer loop
      vertex  4.650000e+000  0.000000e+000  0.000000e+000
      vertex  4.296040e+000  1.779478e+000  0.000000e+000
      vertex  3.061555e+000 -9.594957e-001  0.000000e+000
    endloop
  endfacet
  facet normal  0.000000e+000  0.000000e+000  1.000000e+000
    outer loop
      vertex  3.061555e+000 -9.594957e-001  0.000000e+000
      vertex  4.296040e+000  1.779478e+000  0.000000e+000
      vertex  3.288047e+000  3.288047e+000  0.000000e+000
    endloop
  endfacet
  facet normal  0.000000e+000  0.000000e+000  1.000000e+000
    outer loop
      vertex  3.061555e+000 -9.594957e-001  0.000000e+000
      vertex  3.288047e+000  3.288047e+000  0.000000e+000
      vertex  2.528970e+000 -9.012883e-001  0.000000e+000
    endloop
  endfacet
  facet normal  0.000000e+000  -0.000000e+000  1.000000e+000
    outer loop
      vertex  2.528970e+000 -9.012883e-001  0.000000e+000
      vertex  3.288047e+000  3.288047e+000  0.000000e+000
      vertex  1.779478e+000  4.296040e+000  0.000000e+000
    endloop
  endfacet
  facet normal  0.000000e+000  0.000000e+000  1.000000e+000
    outer loop
      vertex  2.528970e+000 -9.012883e-001  0.000000e+000
      vertex  1.779478e+000  4.296040e+000  0.000000e+000
      vertex  4.949747e-001  2.651584e+000  0.000000e+000
    endloop
  endfacet
  facet normal  0.000000e+000  0.000000e+000  1.000000e+000
    outer loop
      vertex  4.949747e-001  2.651584e+000  0.000000e+000
      vertex  1.779478e+000  4.296040e+000  0.000000e+000
      vertex  7.000000e-001  3.146559e+000  0.000000e+000
    endloop
  endfacet
  facet normal  0.000000e+000  0.000000e+000  1.000000e+000
    outer loop
      vertex -3.288047e+000 -3.288047e+000  0.000000e+000
      vertex -3.219975e+000 -2.068254e+000  0.000000e+000
      vertex -4.296040e+000 -1.779478e+000  0.000000e+000
    endloop
  endfacet
  facet normal  -0.000000e+000  0.000000e+000  1.000000e+000
    outer loop
      vertex -4.296040e+000 -1.779478e+000  0.000000e+000
      vertex -3.219975e+000 -2.068254e+000  0.000000e+000
      vertex -3.425000e+000 -1.573280e+000  0.000000e+000
    endloop
  endfacet
  facet normal  0.000000e+000  0.000000e+000  1.000000e+000
    outer loop
      vertex -4.296040e+000 -1.779478e+000  0.000000e+000
      vertex -3.425000e+000 -1.573280e+000  0.000000e+000
      vertex -4.650000e+000  5.694608e-016  0.000000e+000
    endloop
  endfacet
  facet normal  0.000000e+000  0.000000e+000  1.000000e+000
    outer loop
      vertex -4.650000e+000  5.694608e-016  0.000000e+000
      vertex -3.425000e+000 -1.573280e+000  0.000000e+000
      vertex -3.219975e+000 -1.078305e+000  0.000000e+000
    endloop
  endfacet
  facet normal  0.000000e+000  -0.000000e+000  1.000000e+000
    outer loop
      vertex -4.650000e+000  5.694608e-016  0.000000e+000
      vertex -3.219975e+000 -1.078305e+000  0.000000e+000
      vertex -2.725000e+000 -8.732795e-001  0.000000e+000
    endloop
  endfacet
  facet normal  0.000000e+000  0.000000e+000  1.000000e+000
    outer loop
      vertex  3.396991e+000 -1.377249e+000  0.000000e+000
      vertex  4.296040e+000 -1.779478e+000  0.000000e+000
      vertex  3.061555e+000 -9.594957e-001  0.000000e+000
    endloop
  endfacet
  facet normal  -0.000000e+000  0.000000e+000  1.000000e+000
    outer loop
      vertex  3.061555e+000 -9.594957e-001  0.000000e+000
      vertex  4.296040e+000 -1.779478e+000  0.000000e+000
      vertex  4.650000e+000  0.000000e+000  0.000000e+000
    endloop
  endfacet
  facet normal  3.826834e-001 -9.238796e-001  0.000000e+000
    outer loop
      vertex -2.725000e+000 -8.732795e-001 -7.000000e-001
      vertex -3.219975e+000 -1.078305e+000  0.000000e+000
      vertex -3.219975e+000 -1.078305e+000 -7.000000e-001
    endloop
  endfacet
  facet normal  9.238797e-001 -3.826834e-001  0.000000e+000
    outer loop
      vertex -3.219975e+000 -1.078305e+000 -7.000000e-001
      vertex -3.219975e+000 -1.078305e+000  0.000000e+000
      vertex -3.425000e+000 -1.573280e+000  0.000000e+000
    endloop
  endfacet
  facet normal  9.238797e-001 -3.826834e-001  0.000000e+000
    outer loop
      vertex -3.219975e+000 -1.078305e+000 -7.000000e-001
      vertex -3.425000e+000 -1.573280e+000  0.000000e+000
      vertex -3.425000e+000 -1.573280e+000 -7.000000e-001
    endloop
  endfacet
  facet normal  3.826834e-001 -9.238796e-001  0.000000e+000
    outer loop
      vertex -3.219975e+000 -1.078305e+000  0.000000e+000
      vertex -2.725000e+000 -8.732795e-001 -7.000000e-001
      vertex -2.725000e+000 -8.732795e-001  0.000000e+000
    endloop
  endfacet
  facet normal -3.826835e-001 -9.238795e-001  -0.000000e+000
    outer loop
      vertex -2.725000e+000 -8.732795e-001  0.000000e+000
      vertex -2.725000e+000 -8.732795e-001 -7.000000e-001
      vertex -2.230025e+000 -1.078305e+000 -7.000000e-001
    endloop
  endfacet
  facet normal -3.826835e-001 -9.238795e-001  0.000000e+000
    outer loop
      vertex -2.725000e+000 -8.732795e-001  0.000000e+000
      vertex -2.230025e+000 -1.078305e+000 -7.000000e-001
      vertex -2.230025e+000 -1.078305e+000  0.000000e+000
    endloop
  endfacet
  facet normal -9.238797e-001 -3.826834e-001  -0.000000e+000
    outer loop
      vertex -2.230025e+000 -1.078305e+000  0.000000e+000
      vertex -2.230025e+000 -1.078305e+000 -7.000000e-001
      vertex -2.025000e+000 -1.573280e+000 -7.000000e-001
    endloop
  endfacet
  facet normal -9.238797e-001 -3.826834e-001  0.000000e+000
    outer loop
      vertex -2.230025e+000 -1.078305e+000  0.000000e+000
      vertex -2.025000e+000 -1.573280e+000 -7.000000e-001
      vertex -2.025000e+000 -1.573280e+000  0.000000e+000
    endloop
  endfacet
  facet normal -3.826834e-001  9.238795e-001  0.000000e+000
    outer loop
      vertex -2.725000e+000 -2.273279e+000 -7.000000e-001
      vertex -2.230025e+000 -2.068254e+000  0.000000e+000
      vertex -2.230025e+000 -2.068254e+000 -7.000000e-001
    endloop
  endfacet
  facet normal -9.238797e-001  3.826834e-001  0.000000e+000
    outer loop
      vertex -2.230025e+000 -2.068254e+000 -7.000000e-001
      vertex -2.230025e+000 -2.068254e+000  0.000000e+000
      vertex -2.025000e+000 -1.573280e+000  0.000000e+000
    endloop
  endfacet
  facet normal -9.238797e-001  3.826834e-001  0.000000e+000
    outer loop
      vertex -2.230025e+000 -2.068254e+000 -7.000000e-001
      vertex -2.025000e+000 -1.573280e+000  0.000000e+000
      vertex -2.025000e+000 -1.573280e+000 -7.000000e-001
    endloop
  endfacet
  facet normal -3.826834e-001  9.238795e-001  0.000000e+000
    outer loop
      vertex -2.230025e+000 -2.068254e+000  0.000000e+000
      vertex -2.725000e+000 -2.273279e+000 -7.000000e-001
      vertex -2.725000e+000 -2.273279e+000  0.000000e+000
    endloop
  endfacet
  facet normal  3.826833e-001  9.238796e-001  0.000000e+000
    outer loop
      vertex -2.725000e+000 -2.273279e+000  0.000000e+000
      vertex -2.725000e+000 -2.273279e+000 -7.000000e-001
      vertex -3.219975e+000 -2.068254e+000 -7.000000e-001
    endloop
  endfacet
  facet normal  3.826833e-001  9.238796e-001  -0.000000e+000
    outer loop
      vertex -2.725000e+000 -2.273279e+000  0.000000e+000
      vertex -3.219975e+000 -2.068254e+000 -7.000000e-001
      vertex -3.219975e+000 -2.068254e+000  0.000000e+000
    endloop
  endfacet
  facet normal  9.238797e-001  3.826834e-001  0.000000e+000
    outer loop
      vertex -3.219975e+000 -2.068254e+000  0.000000e+000
      vertex -3.219975e+000 -2.068254e+000 -7.000000e-001
      vertex -3.425000e+000 -1.573280e+000 -7.000000e-001
    endloop
  endfacet
  facet normal  9.238797e-001  3.826834e-001  -0.000000e+000
    outer loop
      vertex -3.219975e+000 -2.068254e+000  0.000000e+000
      vertex -3.425000e+000 -1.573280e+000 -7.000000e-001
      vertex -3.425000e+000 -1.573280e+000  0.000000e+000
    endloop
  endfacet
  facet normal  6.260974e-001 -7.797450e-001  0.000000e+000
    outer loop
      vertex  2.528970e+000 -9.012883e-001 -7.000000e-001
      vertex  2.111216e+000 -1.236724e+000  0.000000e+000
      vertex  2.111216e+000 -1.236724e+000 -7.000000e-001
    endloop
  endfacet
  facet normal  9.940806e-001 -1.086449e-001  0.000000e+000
    outer loop
      vertex  2.111216e+000 -1.236724e+000 -7.000000e-001
      vertex  2.111216e+000 -1.236724e+000  0.000000e+000
      vertex  2.053009e+000 -1.769310e+000  0.000000e+000
    endloop
  endfacet
  facet normal  9.940806e-001 -1.086449e-001  0.000000e+000
    outer loop
      vertex  2.111216e+000 -1.236724e+000 -7.000000e-001
      vertex  2.053009e+000 -1.769310e+000  0.000000e+000
      vertex  2.053009e+000 -1.769310e+000 -7.000000e-001
    endloop
  endfacet
  facet normal  6.260974e-001 -7.797450e-001  0.000000e+000
    outer loop
      vertex  2.111216e+000 -1.236724e+000  0.000000e+000
      vertex  2.528970e+000 -9.012883e-001 -7.000000e-001
      vertex  2.528970e+000 -9.012883e-001  0.000000e+000
    endloop
  endfacet
  facet normal -1.086451e-001 -9.940807e-001  -0.000000e+000
    outer loop
      vertex  2.528970e+000 -9.012883e-001  0.000000e+000
      vertex  2.528970e+000 -9.012883e-001 -7.000000e-001
      vertex  3.061555e+000 -9.594957e-001 -7.000000e-001
    endloop
  endfacet
  facet normal -1.086451e-001 -9.940807e-001  0.000000e+000
    outer loop
      vertex  2.528970e+000 -9.012883e-001  0.000000e+000
      vertex  3.061555e+000 -9.594957e-001 -7.000000e-001
      vertex  3.061555e+000 -9.594957e-001  0.000000e+000
    endloop
  endfacet
  facet normal -7.797447e-001 -6.260976e-001  -0.000000e+000
    outer loop
      vertex  3.061555e+000 -9.594957e-001  0.000000e+000
      vertex  3.061555e+000 -9.594957e-001 -7.000000e-001
      vertex  3.396991e+000 -1.377249e+000 -7.000000e-001
    endloop
  endfacet
  facet normal -7.797447e-001 -6.260976e-001  0.000000e+000
    outer loop
      vertex  3.061555e+000 -9.594957e-001  0.000000e+000
      vertex  3.396991e+000 -1.377249e+000 -7.000000e-001
      vertex  3.396991e+000 -1.377249e+000  0.000000e+000
    endloop
  endfacet
  facet normal -6.260977e-001  7.797446e-001  0.000000e+000
    outer loop
      vertex  2.921030e+000 -2.245271e+000 -7.000000e-001
      vertex  3.338784e+000 -1.909835e+000  0.000000e+000
      vertex  3.338784e+000 -1.909835e+000 -7.000000e-001
    endloop
  endfacet
  facet normal -9.940805e-001  1.086454e-001  0.000000e+000
    outer loop
      vertex  3.338784e+000 -1.909835e+000 -7.000000e-001
      vertex  3.338784e+000 -1.909835e+000  0.000000e+000
      vertex  3.396991e+000 -1.377249e+000  0.000000e+000
    endloop
  endfacet
  facet normal -9.940805e-001  1.086454e-001  0.000000e+000
    outer loop
      vertex  3.338784e+000 -1.909835e+000 -7.000000e-001
      vertex  3.396991e+000 -1.377249e+000  0.000000e+000
      vertex  3.396991e+000 -1.377249e+000 -7.000000e-001
    endloop
  endfacet
  facet normal -6.260977e-001  7.797446e-001  0.000000e+000
    outer loop
      vertex  3.338784e+000 -1.909835e+000  0.000000e+000
      vertex  2.921030e+000 -2.245271e+000 -7.000000e-001
      vertex  2.921030e+000 -2.245271e+000  0.000000e+000
    endloop
  endfacet
  facet normal  1.086454e-001  9.940805e-001  0.000000e+000
    outer loop
      vertex  2.921030e+000 -2.245271e+000  0.000000e+000
      vertex  2.921030e+000 -2.245271e+000 -7.000000e-001
      vertex  2.388445e+000 -2.187063e+000 -7.000000e-001
    endloop
  endfacet
  facet normal  1.086454e-001  9.940805e-001  -0.000000e+000
    outer loop
      vertex  2.921030e+000 -2.245271e+000  0.000000e+000
      vertex  2.388445e+000 -2.187063e+000 -7.000000e-001
      vertex  2.388445e+000 -2.187063e+000  0.000000e+000
    endloop
  endfacet
  facet normal  7.797446e-001  6.260977e-001  0.000000e+000
    outer loop
      vertex  2.388445e+000 -2.187063e+000  0.000000e+000
      vertex  2.388445e+000 -2.187063e+000 -7.000000e-001
      vertex  2.053009e+000 -1.769310e+000 -7.000000e-001
    endloop
  endfacet
  facet normal  7.797446e-001  6.260977e-001  -0.000000e+000
    outer loop
      vertex  2.388445e+000 -2.187063e+000  0.000000e+000
      vertex  2.053009e+000 -1.769310e+000 -7.000000e-001
      vertex  2.053009e+000 -1.769310e+000  0.000000e+000
    endloop
  endfacet
  facet normal  3.826838e-001 -9.238794e-001  0.000000e+000
    outer loop
      vertex  3.759296e-016  3.846559e+000 -7.000000e-001
      vertex -4.949747e-001  3.641534e+000  0.000000e+000
      vertex -4.949747e-001  3.641534e+000 -7.000000e-001
    endloop
  endfacet
  facet normal  9.238795e-001 -3.826835e-001  0.000000e+000
    outer loop
      vertex -4.949747e-001  3.641534e+000 -7.000000e-001
      vertex -4.949747e-001  3.641534e+000  0.000000e+000
      vertex -7.000000e-001  3.146559e+000  0.000000e+000
    endloop
  endfacet
  facet normal  9.238795e-001 -3.826835e-001  0.000000e+000
    outer loop
      vertex -4.949747e-001  3.641534e+000 -7.000000e-001
      vertex -7.000000e-001  3.146559e+000  0.000000e+000
      vertex -7.000000e-001  3.146559e+000 -7.000000e-001
    endloop
  endfacet
  facet normal  3.826838e-001 -9.238794e-001 -2.857851e-017
    outer loop
      vertex -4.949747e-001  3.641534e+000  0.000000e+000
      vertex  3.759296e-016  3.846559e+000 -7.000000e-001
      vertex  4.282050e-016  3.846559e+000  0.000000e+000
    endloop
  endfacet
  facet normal -3.826838e-001 -9.238794e-001  2.857851e-017
    outer loop
      vertex  4.282050e-016  3.846559e+000  0.000000e+000
      vertex  3.759296e-016  3.846559e+000 -7.000000e-001
      vertex  4.949747e-001  3.641534e+000 -7.000000e-001
    endloop
  endfacet
  facet normal -3.826838e-001 -9.238794e-001  0.000000e+000
    outer loop
      vertex  4.282050e-016  3.846559e+000  0.000000e+000
      vertex  4.949747e-001  3.641534e+000 -7.000000e-001
      vertex  4.949747e-001  3.641534e+000  0.000000e+000
    endloop
  endfacet
  facet normal -9.238795e-001 -3.826835e-001  -0.000000e+000
    outer loop
      vertex  4.949747e-001  3.641534e+000  0.000000e+000
      vertex  4.949747e-001  3.641534e+000 -7.000000e-001
      vertex  7.000000e-001  3.146559e+000 -7.000000e-001
    endloop
  endfacet
  facet normal -9.238795e-001 -3.826835e-001  0.000000e+000
    outer loop
      vertex  4.949747e-001  3.641534e+000  0.000000e+000
      vertex  7.000000e-001  3.146559e+000 -7.000000e-001
      vertex  7.000000e-001  3.146559e+000  0.000000e+000
    endloop
  endfacet
  facet normal -3.826834e-001  9.238797e-001  0.000000e+000
    outer loop
      vertex  2.044790e-016  2.446559e+000 -7.000000e-001
      vertex  4.949747e-001  2.651584e+000  0.000000e+000
      vertex  4.949747e-001  2.651584e+000 -7.000000e-001
    endloop
  endfacet
  facet normal -9.238796e-001  3.826834e-001  0.000000e+000
    outer loop
      vertex  4.949747e-001  2.651584e+000 -7.000000e-001
      vertex  4.949747e-001  2.651584e+000  0.000000e+000
      vertex  7.000000e-001  3.146559e+000  0.000000e+000
    endloop
  endfacet
  facet normal -9.238796e-001  3.826834e-001  0.000000e+000
    outer loop
      vertex  4.949747e-001  2.651584e+000 -7.000000e-001
      vertex  7.000000e-001  3.146559e+000  0.000000e+000
      vertex  7.000000e-001  3.146559e+000 -7.000000e-001
    endloop
  endfacet
  facet normal -3.826834e-001  9.238797e-001  2.857848e-017
    outer loop
      vertex  4.949747e-001  2.651584e+000  0.000000e+000
      vertex  2.044790e-016  2.446559e+000 -7.000000e-001
      vertex  2.567544e-016  2.446559e+000  0.000000e+000
    endloop
  endfacet
  facet normal  3.826834e-001  9.238797e-001 -2.857848e-017
    outer loop
      vertex  2.567544e-016  2.446559e+000  0.000000e+000
      vertex  2.044790e-016  2.446559e+000 -7.000000e-001
      vertex -4.949747e-001  2.651584e+000 -7.000000e-001
    endloop
  endfacet
  facet normal  3.826834e-001  9.238797e-001  -0.000000e+000
    outer loop
      vertex  2.567544e-016  2.446559e+000  0.000000e+000
      vertex -4.949747e-001  2.651584e+000 -7.000000e-001
      vertex -4.949747e-001  2.651584e+000  0.000000e+000
    endloop
  endfacet
  facet normal  9.238796e-001  3.826834e-001  0.000000e+000
    outer loop
      vertex -4.949747e-001  2.651584e+000  0.000000e+000
      vertex -4.949747e-001  2.651584e+000 -7.000000e-001
      vertex -7.000000e-001  3.146559e+000 -7.000000e-001
    endloop
  endfacet
  facet normal  9.238796e-001  3.826834e-001  -0.000000e+000
    outer loop
      vertex -4.949747e-001  2.651584e+000  0.000000e+000
      vertex -7.000000e-001  3.146559e+000 -7.000000e-001
      vertex -7.000000e-001  3.146559e+000  0.000000e+000
    endloop
  endfacet
endsolid CATIA STL
