solid CATIA STL
  facet normal  -0.000000e+000  0.000000e+000 -1.000000e+000
    outer loop
      vertex  2.500000e+001  0.000000e+000  0.000000e+000
      vertex  2.700000e+001  0.000000e+000  0.000000e+000
      vertex  2.500000e+001 -1.300000e+001  0.000000e+000
    endloop
  endfacet
  facet normal  0.000000e+000  0.000000e+000 -9.999999e-001
    outer loop
      vertex  2.700000e+001  2.414915e+001  0.000000e+000
      vertex  2.700000e+001  0.000000e+000  0.000000e+000
      vertex  2.500000e+001  0.000000e+000  0.000000e+000
    endloop
  endfacet
  facet normal  0.000000e+000  0.000000e+000 -1.000000e+000
    outer loop
      vertex  2.700000e+001  2.414915e+001  0.000000e+000
      vertex  2.500000e+001  0.000000e+000  0.000000e+000
      vertex  2.500000e+001  1.300000e+001  0.000000e+000
    endloop
  endfacet
  facet normal  0.000000e+000  0.000000e+000 -1.000000e+000
    outer loop
      vertex  2.700000e+001  2.414915e+001  0.000000e+000
      vertex  2.500000e+001  1.300000e+001  0.000000e+000
      vertex  2.500000e+001  1.500000e+001  0.000000e+000
    endloop
  endfacet
  facet normal  0.000000e+000  0.000000e+000 -1.000000e+000
    outer loop
      vertex  2.700000e+001  2.414915e+001  0.000000e+000
      vertex  2.500000e+001  1.500000e+001  0.000000e+000
      vertex  2.500000e+001  2.414915e+001  0.000000e+000
    endloop
  endfacet
  facet normal  0.000000e+000  0.000000e+000 -1.000000e+000
    outer loop
      vertex  2.500000e+001 -1.500000e+001  0.000000e+000
      vertex -9.308993e+000 -1.500000e+001  0.000000e+000
      vertex -1.100000e+001 -1.375993e+001  0.000000e+000
    endloop
  endfacet
  facet normal  0.000000e+000  0.000000e+000 -1.000000e+000
    outer loop
      vertex  2.500000e+001 -1.500000e+001  0.000000e+000
      vertex -1.100000e+001 -1.375993e+001  0.000000e+000
      vertex -9.000000e+000 -1.300000e+001  0.000000e+000
    endloop
  endfacet
  facet normal  0.000000e+000  0.000000e+000 -1.000000e+000
    outer loop
      vertex  2.500000e+001 -1.500000e+001  0.000000e+000
      vertex -9.000000e+000 -1.300000e+001  0.000000e+000
      vertex  2.500000e+001 -1.300000e+001  0.000000e+000
    endloop
  endfacet
  facet normal  0.000000e+000  0.000000e+000 -1.000000e+000
    outer loop
      vertex  2.500000e+001 -1.500000e+001  0.000000e+000
      vertex  2.500000e+001 -1.300000e+001  0.000000e+000
      vertex  2.700000e+001  0.000000e+000  0.000000e+000
    endloop
  endfacet
  facet normal -3.861782e-015  5.149042e-016 -9.999999e-001
    outer loop
      vertex  2.500000e+001 -1.500000e+001  0.000000e+000
      vertex  2.700000e+001  0.000000e+000  0.000000e+000
      vertex  2.700000e+001 -2.414915e+001 -1.243450e-014
    endloop
  endfacet
  facet normal  0.000000e+000  1.359088e-015 -1.000000e+000
    outer loop
      vertex  2.500000e+001 -1.500000e+001  0.000000e+000
      vertex  2.700000e+001 -2.414915e+001 -1.243450e-014
      vertex  2.500000e+001 -2.414915e+001 -1.243450e-014
    endloop
  endfacet
  facet normal  0.000000e+000  0.000000e+000 -1.000000e+000
    outer loop
      vertex  2.500000e+001  1.300000e+001  0.000000e+000
      vertex -9.000000e+000  1.300000e+001  0.000000e+000
      vertex  2.500000e+001  1.500000e+001  0.000000e+000
    endloop
  endfacet
  facet normal  0.000000e+000  0.000000e+000 -1.000000e+000
    outer loop
      vertex  2.500000e+001  1.500000e+001  0.000000e+000
      vertex -9.000000e+000  1.300000e+001  0.000000e+000
      vertex -1.100000e+001  1.375993e+001  0.000000e+000
    endloop
  endfacet
  facet normal  0.000000e+000  0.000000e+000 -9.999999e-001
    outer loop
      vertex  2.500000e+001  1.500000e+001  0.000000e+000
      vertex -1.100000e+001  1.375993e+001  0.000000e+000
      vertex -9.308993e+000  1.500000e+001  0.000000e+000
    endloop
  endfacet
  facet normal  9.973822e-017 -1.360067e-016 -1.000000e+000
    outer loop
      vertex -9.308993e+000  1.500000e+001  0.000000e+000
      vertex -1.100000e+001  1.375993e+001  0.000000e+000
      vertex -1.990510e+001  2.029033e+001 -1.776357e-015
    endloop
  endfacet
  facet normal  1.227132e-016 -8.998970e-017 -1.000000e+000
    outer loop
      vertex -9.308993e+000  1.500000e+001  0.000000e+000
      vertex -1.990510e+001  2.029033e+001 -1.776357e-015
      vertex -1.872237e+001  2.190314e+001 -1.776357e-015
    endloop
  endfacet
  facet normal  0.000000e+000  0.000000e+000 -1.000000e+000
    outer loop
      vertex -9.000000e+000  1.300000e+001  0.000000e+000
      vertex -9.000000e+000 -2.486900e-014  0.000000e+000
      vertex -1.100000e+001  1.375993e+001  0.000000e+000
    endloop
  endfacet
  facet normal  0.000000e+000  0.000000e+000 -1.000000e+000
    outer loop
      vertex -1.100000e+001  1.375993e+001  0.000000e+000
      vertex -9.000000e+000 -2.486900e-014  0.000000e+000
      vertex -1.100000e+001  0.000000e+000  0.000000e+000
    endloop
  endfacet
  facet normal  0.000000e+000  0.000000e+000 -1.000000e+000
    outer loop
      vertex -9.000000e+000 -2.486900e-014  0.000000e+000
      vertex -9.000000e+000 -1.300000e+001  0.000000e+000
      vertex -1.100000e+001  0.000000e+000  0.000000e+000
    endloop
  endfacet
  facet normal  0.000000e+000  0.000000e+000 -1.000000e+000
    outer loop
      vertex -1.100000e+001  0.000000e+000  0.000000e+000
      vertex -9.000000e+000 -1.300000e+001  0.000000e+000
      vertex -1.100000e+001 -1.375993e+001  0.000000e+000
    endloop
  endfacet
  facet normal  0.000000e+000  0.000000e+000 -1.000000e+000
    outer loop
      vertex -1.872237e+001 -2.190314e+001  0.000000e+000
      vertex -1.990510e+001 -2.029033e+001  0.000000e+000
      vertex -9.308993e+000 -1.500000e+001  0.000000e+000
    endloop
  endfacet
  facet normal  -0.000000e+000  0.000000e+000 -1.000000e+000
    outer loop
      vertex -9.308993e+000 -1.500000e+001  0.000000e+000
      vertex -1.990510e+001 -2.029033e+001  0.000000e+000
      vertex -1.100000e+001 -1.375993e+001  0.000000e+000
    endloop
  endfacet
  facet normal  0.000000e+000  0.000000e+000  1.000000e+000
    outer loop
      vertex  2.500000e+001  0.000000e+000  2.000000e+000
      vertex  2.700000e+001  0.000000e+000  2.000000e+000
      vertex  2.500000e+001  1.300000e+001  2.000000e+000
    endloop
  endfacet
  facet normal  0.000000e+000  0.000000e+000  1.000000e+000
    outer loop
      vertex  2.700000e+001 -2.299445e+001  2.000000e+000
      vertex  2.700000e+001  0.000000e+000  2.000000e+000
      vertex  2.500000e+001  0.000000e+000  2.000000e+000
    endloop
  endfacet
  facet normal  0.000000e+000  0.000000e+000  1.000000e+000
    outer loop
      vertex  2.700000e+001 -2.299445e+001  2.000000e+000
      vertex  2.500000e+001  0.000000e+000  2.000000e+000
      vertex  2.500000e+001 -1.300000e+001  2.000000e+000
    endloop
  endfacet
  facet normal  0.000000e+000  0.000000e+000  1.000000e+000
    outer loop
      vertex  2.700000e+001 -2.299445e+001  2.000000e+000
      vertex  2.500000e+001 -1.300000e+001  2.000000e+000
      vertex  2.500000e+001 -1.500000e+001  2.000000e+000
    endloop
  endfacet
  facet normal  0.000000e+000  0.000000e+000  1.000000e+000
    outer loop
      vertex  2.700000e+001 -2.299445e+001  2.000000e+000
      vertex  2.500000e+001 -1.500000e+001  2.000000e+000
      vertex  2.500000e+001 -2.299445e+001  2.000000e+000
    endloop
  endfacet
  facet normal  -0.000000e+000  0.000000e+000  1.000000e+000
    outer loop
      vertex  2.500000e+001  1.500000e+001  2.000000e+000
      vertex -9.308993e+000  1.500000e+001  2.000000e+000
      vertex -1.100000e+001  1.375993e+001  2.000000e+000
    endloop
  endfacet
  facet normal  -0.000000e+000  0.000000e+000  1.000000e+000
    outer loop
      vertex  2.500000e+001  1.500000e+001  2.000000e+000
      vertex -1.100000e+001  1.375993e+001  2.000000e+000
      vertex -9.000000e+000  1.300000e+001  2.000000e+000
    endloop
  endfacet
  facet normal  0.000000e+000  0.000000e+000  1.000000e+000
    outer loop
      vertex  2.500000e+001  1.500000e+001  2.000000e+000
      vertex -9.000000e+000  1.300000e+001  2.000000e+000
      vertex  2.500000e+001  1.300000e+001  2.000000e+000
    endloop
  endfacet
  facet normal  -0.000000e+000  0.000000e+000  1.000000e+000
    outer loop
      vertex  2.500000e+001  1.500000e+001  2.000000e+000
      vertex  2.500000e+001  1.300000e+001  2.000000e+000
      vertex  2.700000e+001  0.000000e+000  2.000000e+000
    endloop
  endfacet
  facet normal  0.000000e+000  -0.000000e+000  1.000000e+000
    outer loop
      vertex  2.500000e+001  1.500000e+001  2.000000e+000
      vertex  2.700000e+001  0.000000e+000  2.000000e+000
      vertex  2.700000e+001  2.299445e+001  2.000000e+000
    endloop
  endfacet
  facet normal  0.000000e+000  0.000000e+000  1.000000e+000
    outer loop
      vertex  2.500000e+001  1.500000e+001  2.000000e+000
      vertex  2.700000e+001  2.299445e+001  2.000000e+000
      vertex  2.500000e+001  2.299445e+001  2.000000e+000
    endloop
  endfacet
  facet normal  -0.000000e+000  0.000000e+000  1.000000e+000
    outer loop
      vertex  2.500000e+001 -1.300000e+001  2.000000e+000
      vertex -9.000000e+000 -1.300000e+001  2.000000e+000
      vertex  2.500000e+001 -1.500000e+001  2.000000e+000
    endloop
  endfacet
  facet normal  0.000000e+000  0.000000e+000  1.000000e+000
    outer loop
      vertex  2.500000e+001 -1.500000e+001  2.000000e+000
      vertex -9.000000e+000 -1.300000e+001  2.000000e+000
      vertex -1.100000e+001 -1.375993e+001  2.000000e+000
    endloop
  endfacet
  facet normal  0.000000e+000  0.000000e+000  9.999999e-001
    outer loop
      vertex  2.500000e+001 -1.500000e+001  2.000000e+000
      vertex -1.100000e+001 -1.375993e+001  2.000000e+000
      vertex -9.308993e+000 -1.500000e+001  2.000000e+000
    endloop
  endfacet
  facet normal  0.000000e+000  0.000000e+000  1.000000e+000
    outer loop
      vertex -9.308993e+000 -1.500000e+001  2.000000e+000
      vertex -1.100000e+001 -1.375993e+001  2.000000e+000
      vertex -1.897394e+001 -1.960748e+001  2.000000e+000
    endloop
  endfacet
  facet normal  -0.000000e+000  0.000000e+000  1.000000e+000
    outer loop
      vertex -9.308993e+000 -1.500000e+001  2.000000e+000
      vertex -1.897394e+001 -1.960748e+001  2.000000e+000
      vertex -1.779121e+001 -2.122029e+001  2.000000e+000
    endloop
  endfacet
  facet normal  0.000000e+000  0.000000e+000  1.000000e+000
    outer loop
      vertex -9.000000e+000 -1.300000e+001  2.000000e+000
      vertex -9.000000e+000 -2.486900e-014  2.000000e+000
      vertex -1.100000e+001 -1.375993e+001  2.000000e+000
    endloop
  endfacet
  facet normal  0.000000e+000  0.000000e+000  1.000000e+000
    outer loop
      vertex -1.100000e+001 -1.375993e+001  2.000000e+000
      vertex -9.000000e+000 -2.486900e-014  2.000000e+000
      vertex -1.100000e+001  0.000000e+000  2.000000e+000
    endloop
  endfacet
  facet normal  0.000000e+000  0.000000e+000  1.000000e+000
    outer loop
      vertex -9.000000e+000 -2.486900e-014  2.000000e+000
      vertex -9.000000e+000  1.300000e+001  2.000000e+000
      vertex -1.100000e+001  0.000000e+000  2.000000e+000
    endloop
  endfacet
  facet normal  0.000000e+000  0.000000e+000  1.000000e+000
    outer loop
      vertex -1.100000e+001  0.000000e+000  2.000000e+000
      vertex -9.000000e+000  1.300000e+001  2.000000e+000
      vertex -1.100000e+001  1.375993e+001  2.000000e+000
    endloop
  endfacet
  facet normal  -0.000000e+000  0.000000e+000  1.000000e+000
    outer loop
      vertex -1.779121e+001  2.122029e+001  2.000000e+000
      vertex -1.897394e+001  1.960748e+001  2.000000e+000
      vertex -9.308993e+000  1.500000e+001  2.000000e+000
    endloop
  endfacet
  facet normal  0.000000e+000  0.000000e+000  1.000000e+000
    outer loop
      vertex -9.308993e+000  1.500000e+001  2.000000e+000
      vertex -1.897394e+001  1.960748e+001  2.000000e+000
      vertex -1.100000e+001  1.375993e+001  2.000000e+000
    endloop
  endfacet
  facet normal  5.913637e-001 -8.064049e-001 -9.176735e-008
    outer loop
      vertex -2.198141e+001 -2.429311e+001  1.100000e+001
      vertex -2.384373e+001 -2.565881e+001  1.100000e+001
      vertex -1.779121e+001 -2.122029e+001  2.000000e+000
    endloop
  endfacet
  facet normal  5.913638e-001 -8.064049e-001 -3.754119e-008
    outer loop
      vertex -1.779121e+001 -2.122029e+001  2.000000e+000
      vertex -2.384373e+001 -2.565881e+001  1.100000e+001
      vertex -1.872237e+001 -2.190314e+001  0.000000e+000
    endloop
  endfacet
  facet normal  5.913635e-001 -8.064049e-001  9.066586e-008
    outer loop
      vertex -1.779121e+001 -2.122029e+001  2.000000e+000
      vertex -1.872237e+001 -2.190314e+001  0.000000e+000
      vertex -9.308993e+000 -1.500000e+001  2.000000e+000
    endloop
  endfacet
  facet normal  5.913636e-001 -8.064050e-001  0.000000e+000
    outer loop
      vertex -9.308993e+000 -1.500000e+001  2.000000e+000
      vertex -1.872237e+001 -2.190314e+001  0.000000e+000
      vertex -9.308993e+000 -1.500000e+001  0.000000e+000
    endloop
  endfacet
  facet normal -5.913638e-001  8.064049e-001  9.176735e-008
    outer loop
      vertex -2.316414e+001 -2.268030e+001  1.100000e+001
      vertex -1.897394e+001 -1.960748e+001  2.000000e+000
      vertex -2.502645e+001 -2.404600e+001  1.100000e+001
    endloop
  endfacet
  facet normal -5.913637e-001  8.064049e-001  7.508238e-008
    outer loop
      vertex -2.502645e+001 -2.404600e+001  1.100000e+001
      vertex -1.897394e+001 -1.960748e+001  2.000000e+000
      vertex -1.990510e+001 -2.029033e+001  0.000000e+000
    endloop
  endfacet
  facet normal -5.913635e-001  8.064051e-001 -1.928903e-007
    outer loop
      vertex -1.897394e+001 -1.960748e+001  2.000000e+000
      vertex -1.100000e+001 -1.375993e+001  2.000000e+000
      vertex -1.990510e+001 -2.029033e+001  0.000000e+000
    endloop
  endfacet
  facet normal -5.913635e-001  8.064051e-001  0.000000e+000
    outer loop
      vertex -1.990510e+001 -2.029033e+001  0.000000e+000
      vertex -1.100000e+001 -1.375993e+001  2.000000e+000
      vertex -1.100000e+001 -1.375993e+001  0.000000e+000
    endloop
  endfacet
  facet normal -1.000000e+000  0.000000e+000  0.000000e+000
    outer loop
      vertex -1.100000e+001  0.000000e+000  2.000000e+000
      vertex -1.100000e+001  0.000000e+000  0.000000e+000
      vertex -1.100000e+001 -1.375993e+001  2.000000e+000
    endloop
  endfacet
  facet normal -1.000000e+000  0.000000e+000  0.000000e+000
    outer loop
      vertex -1.100000e+001 -1.375993e+001  2.000000e+000
      vertex -1.100000e+001  0.000000e+000  0.000000e+000
      vertex -1.100000e+001 -1.375993e+001  0.000000e+000
    endloop
  endfacet
  facet normal  0.000000e+000 -1.000000e+000  0.000000e+000
    outer loop
      vertex  2.500000e+001 -1.500000e+001  2.000000e+000
      vertex -9.308993e+000 -1.500000e+001  2.000000e+000
      vertex  2.500000e+001 -1.500000e+001  0.000000e+000
    endloop
  endfacet
  facet normal  0.000000e+000 -1.000000e+000  0.000000e+000
    outer loop
      vertex  2.500000e+001 -1.500000e+001  0.000000e+000
      vertex -9.308993e+000 -1.500000e+001  2.000000e+000
      vertex -9.308993e+000 -1.500000e+001  0.000000e+000
    endloop
  endfacet
  facet normal -6.983672e-001 -5.121361e-001 -5.000000e-001
    outer loop
      vertex -1.990510e+001 -2.029033e+001  0.000000e+000
      vertex -1.872237e+001 -2.190314e+001  0.000000e+000
      vertex -2.502645e+001 -2.404600e+001  1.100000e+001
    endloop
  endfacet
  facet normal -6.983672e-001 -5.121361e-001 -5.000000e-001
    outer loop
      vertex -2.502645e+001 -2.404600e+001  1.100000e+001
      vertex -1.872237e+001 -2.190314e+001  0.000000e+000
      vertex -2.384373e+001 -2.565881e+001  1.100000e+001
    endloop
  endfacet
  facet normal  0.000000e+000  -0.000000e+000  1.000000e+000
    outer loop
      vertex -2.502645e+001 -2.404600e+001  1.100000e+001
      vertex -2.384373e+001 -2.565881e+001  1.100000e+001
      vertex -2.316414e+001 -2.268030e+001  1.100000e+001
    endloop
  endfacet
  facet normal  0.000000e+000  0.000000e+000  1.000000e+000
    outer loop
      vertex -2.316414e+001 -2.268030e+001  1.100000e+001
      vertex -2.384373e+001 -2.565881e+001  1.100000e+001
      vertex -2.198141e+001 -2.429311e+001  1.100000e+001
    endloop
  endfacet
  facet normal  6.983671e-001  5.121360e-001  5.000000e-001
    outer loop
      vertex -2.316414e+001 -2.268030e+001  1.100000e+001
      vertex -2.198141e+001 -2.429311e+001  1.100000e+001
      vertex -1.897394e+001 -1.960748e+001  2.000000e+000
    endloop
  endfacet
  facet normal  6.983671e-001  5.121360e-001  5.000000e-001
    outer loop
      vertex -1.897394e+001 -1.960748e+001  2.000000e+000
      vertex -2.198141e+001 -2.429311e+001  1.100000e+001
      vertex -1.779121e+001 -2.122029e+001  2.000000e+000
    endloop
  endfacet
  facet normal  5.913638e-001  8.064049e-001 -9.176735e-008
    outer loop
      vertex -2.198141e+001  2.429311e+001  1.100000e+001
      vertex -1.779121e+001  2.122029e+001  2.000000e+000
      vertex -2.384373e+001  2.565881e+001  1.100000e+001
    endloop
  endfacet
  facet normal  5.913637e-001  8.064049e-001 -7.508238e-008
    outer loop
      vertex -2.384373e+001  2.565881e+001  1.100000e+001
      vertex -1.779121e+001  2.122029e+001  2.000000e+000
      vertex -1.872237e+001  2.190314e+001 -1.776357e-015
    endloop
  endfacet
  facet normal  5.913635e-001  8.064049e-001  0.000000e+000
    outer loop
      vertex -1.779121e+001  2.122029e+001  2.000000e+000
      vertex -9.308993e+000  1.500000e+001  2.000000e+000
      vertex -1.872237e+001  2.190314e+001 -1.776357e-015
    endloop
  endfacet
  facet normal  5.913636e-001  8.064050e-001  0.000000e+000
    outer loop
      vertex -1.872237e+001  2.190314e+001 -1.776357e-015
      vertex -9.308993e+000  1.500000e+001  2.000000e+000
      vertex -9.308993e+000  1.500000e+001  0.000000e+000
    endloop
  endfacet
  facet normal -5.913637e-001 -8.064049e-001  9.176735e-008
    outer loop
      vertex -2.316414e+001  2.268030e+001  1.100000e+001
      vertex -2.502645e+001  2.404600e+001  1.100000e+001
      vertex -1.897394e+001  1.960748e+001  2.000000e+000
    endloop
  endfacet
  facet normal -5.913638e-001 -8.064049e-001  3.754119e-008
    outer loop
      vertex -1.897394e+001  1.960748e+001  2.000000e+000
      vertex -2.502645e+001  2.404600e+001  1.100000e+001
      vertex -1.990510e+001  2.029033e+001 -1.776357e-015
    endloop
  endfacet
  facet normal -5.913635e-001 -8.064051e-001 -1.205564e-007
    outer loop
      vertex -1.897394e+001  1.960748e+001  2.000000e+000
      vertex -1.990510e+001  2.029033e+001 -1.776357e-015
      vertex -1.100000e+001  1.375993e+001  2.000000e+000
    endloop
  endfacet
  facet normal -5.913635e-001 -8.064051e-001  -0.000000e+000
    outer loop
      vertex -1.100000e+001  1.375993e+001  2.000000e+000
      vertex -1.990510e+001  2.029033e+001 -1.776357e-015
      vertex -1.100000e+001  1.375993e+001  0.000000e+000
    endloop
  endfacet
  facet normal  0.000000e+000  1.000000e+000  -0.000000e+000
    outer loop
      vertex  2.500000e+001  1.500000e+001  2.000000e+000
      vertex  2.500000e+001  1.500000e+001  0.000000e+000
      vertex -9.308993e+000  1.500000e+001  2.000000e+000
    endloop
  endfacet
  facet normal  0.000000e+000  1.000000e+000  0.000000e+000
    outer loop
      vertex -9.308993e+000  1.500000e+001  2.000000e+000
      vertex  2.500000e+001  1.500000e+001  0.000000e+000
      vertex -9.308993e+000  1.500000e+001  0.000000e+000
    endloop
  endfacet
  facet normal -1.000000e+000  0.000000e+000  0.000000e+000
    outer loop
      vertex -1.100000e+001  1.375993e+001  2.000000e+000
      vertex -1.100000e+001  1.375993e+001  0.000000e+000
      vertex -1.100000e+001  0.000000e+000  2.000000e+000
    endloop
  endfacet
  facet normal -1.000000e+000  0.000000e+000  0.000000e+000
    outer loop
      vertex -1.100000e+001  0.000000e+000  2.000000e+000
      vertex -1.100000e+001  1.375993e+001  0.000000e+000
      vertex -1.100000e+001  0.000000e+000  0.000000e+000
    endloop
  endfacet
  facet normal -6.983671e-001  5.121362e-001 -4.999999e-001
    outer loop
      vertex -1.990510e+001  2.029033e+001 -1.776357e-015
      vertex -2.502645e+001  2.404600e+001  1.100000e+001
      vertex -1.872237e+001  2.190314e+001 -1.776357e-015
    endloop
  endfacet
  facet normal -6.983671e-001  5.121362e-001 -4.999999e-001
    outer loop
      vertex -1.872237e+001  2.190314e+001 -1.776357e-015
      vertex -2.502645e+001  2.404600e+001  1.100000e+001
      vertex -2.384373e+001  2.565881e+001  1.100000e+001
    endloop
  endfacet
  facet normal  0.000000e+000  0.000000e+000  1.000000e+000
    outer loop
      vertex -2.502645e+001  2.404600e+001  1.100000e+001
      vertex -2.316414e+001  2.268030e+001  1.100000e+001
      vertex -2.384373e+001  2.565881e+001  1.100000e+001
    endloop
  endfacet
  facet normal  0.000000e+000  0.000000e+000  1.000000e+000
    outer loop
      vertex -2.384373e+001  2.565881e+001  1.100000e+001
      vertex -2.316414e+001  2.268030e+001  1.100000e+001
      vertex -2.198141e+001  2.429311e+001  1.100000e+001
    endloop
  endfacet
  facet normal  6.983672e-001 -5.121360e-001  5.000000e-001
    outer loop
      vertex -2.316414e+001  2.268030e+001  1.100000e+001
      vertex -1.897394e+001  1.960748e+001  2.000000e+000
      vertex -2.198141e+001  2.429311e+001  1.100000e+001
    endloop
  endfacet
  facet normal  6.983672e-001 -5.121360e-001  5.000000e-001
    outer loop
      vertex -2.198141e+001  2.429311e+001  1.100000e+001
      vertex -1.897394e+001  1.960748e+001  2.000000e+000
      vertex -1.779121e+001  2.122029e+001  2.000000e+000
    endloop
  endfacet
  facet normal  1.000000e+000  0.000000e+000  0.000000e+000
    outer loop
      vertex -9.000000e+000 -1.300000e+001  2.000000e+000
      vertex -9.000000e+000 -1.300000e+001  0.000000e+000
      vertex -9.000000e+000 -2.486900e-014  2.000000e+000
    endloop
  endfacet
  facet normal  1.000000e+000  0.000000e+000  0.000000e+000
    outer loop
      vertex -9.000000e+000 -2.486900e-014  2.000000e+000
      vertex -9.000000e+000 -1.300000e+001  0.000000e+000
      vertex -9.000000e+000 -2.486900e-014  0.000000e+000
    endloop
  endfacet
  facet normal  1.000000e+000  0.000000e+000  0.000000e+000
    outer loop
      vertex -9.000000e+000 -2.486900e-014  2.000000e+000
      vertex -9.000000e+000 -2.486900e-014  0.000000e+000
      vertex -9.000000e+000  1.300000e+001  2.000000e+000
    endloop
  endfacet
  facet normal  1.000000e+000  0.000000e+000  0.000000e+000
    outer loop
      vertex -9.000000e+000  1.300000e+001  2.000000e+000
      vertex -9.000000e+000 -2.486900e-014  0.000000e+000
      vertex -9.000000e+000  1.300000e+001  0.000000e+000
    endloop
  endfacet
  facet normal -1.000000e+000  0.000000e+000  0.000000e+000
    outer loop
      vertex  2.500000e+001 -2.414915e+001 -1.243450e-014
      vertex  2.500000e+001 -3.050000e+001  1.100000e+001
      vertex  2.500000e+001 -2.819060e+001  1.100000e+001
    endloop
  endfacet
  facet normal -1.000000e+000  0.000000e+000  0.000000e+000
    outer loop
      vertex  2.500000e+001 -2.414915e+001 -1.243450e-014
      vertex  2.500000e+001 -2.819060e+001  1.100000e+001
      vertex  2.500000e+001 -2.299445e+001  2.000000e+000
    endloop
  endfacet
  facet normal -1.000000e+000  0.000000e+000  -0.000000e+000
    outer loop
      vertex  2.500000e+001 -2.414915e+001 -1.243450e-014
      vertex  2.500000e+001 -2.299445e+001  2.000000e+000
      vertex  2.500000e+001 -1.500000e+001  2.000000e+000
    endloop
  endfacet
  facet normal -1.000000e+000  0.000000e+000  -0.000000e+000
    outer loop
      vertex  2.500000e+001 -2.414915e+001 -1.243450e-014
      vertex  2.500000e+001 -1.500000e+001  2.000000e+000
      vertex  2.500000e+001 -1.500000e+001  0.000000e+000
    endloop
  endfacet
  facet normal -1.000000e+000  -0.000000e+000  0.000000e+000
    outer loop
      vertex  2.500000e+001 -1.300000e+001  2.000000e+000
      vertex  2.500000e+001  0.000000e+000  2.000000e+000
      vertex  2.500000e+001 -1.300000e+001  0.000000e+000
    endloop
  endfacet
  facet normal -1.000000e+000  0.000000e+000  0.000000e+000
    outer loop
      vertex  2.500000e+001  1.300000e+001  0.000000e+000
      vertex  2.500000e+001  0.000000e+000  0.000000e+000
      vertex  2.500000e+001  1.300000e+001  2.000000e+000
    endloop
  endfacet
  facet normal -1.000000e+000  0.000000e+000  0.000000e+000
    outer loop
      vertex  2.500000e+001  1.300000e+001  2.000000e+000
      vertex  2.500000e+001  0.000000e+000  0.000000e+000
      vertex  2.500000e+001 -1.300000e+001  0.000000e+000
    endloop
  endfacet
  facet normal -1.000000e+000  0.000000e+000  0.000000e+000
    outer loop
      vertex  2.500000e+001  1.300000e+001  2.000000e+000
      vertex  2.500000e+001 -1.300000e+001  0.000000e+000
      vertex  2.500000e+001  0.000000e+000  2.000000e+000
    endloop
  endfacet
  facet normal -1.000000e+000  0.000000e+000  0.000000e+000
    outer loop
      vertex  2.500000e+001  3.050000e+001  1.100000e+001
      vertex  2.500000e+001  2.414915e+001  0.000000e+000
      vertex  2.500000e+001  2.819060e+001  1.100000e+001
    endloop
  endfacet
  facet normal -1.000000e+000  0.000000e+000  0.000000e+000
    outer loop
      vertex  2.500000e+001  2.819060e+001  1.100000e+001
      vertex  2.500000e+001  2.414915e+001  0.000000e+000
      vertex  2.500000e+001  2.299445e+001  2.000000e+000
    endloop
  endfacet
  facet normal -1.000000e+000  0.000000e+000  0.000000e+000
    outer loop
      vertex  2.500000e+001  2.414915e+001  0.000000e+000
      vertex  2.500000e+001  1.500000e+001  0.000000e+000
      vertex  2.500000e+001  2.299445e+001  2.000000e+000
    endloop
  endfacet
  facet normal -1.000000e+000  -0.000000e+000  0.000000e+000
    outer loop
      vertex  2.500000e+001  2.299445e+001  2.000000e+000
      vertex  2.500000e+001  1.500000e+001  0.000000e+000
      vertex  2.500000e+001  1.500000e+001  2.000000e+000
    endloop
  endfacet
  facet normal  0.000000e+000 -1.000000e+000  0.000000e+000
    outer loop
      vertex -9.000000e+000  1.300000e+001  2.000000e+000
      vertex -9.000000e+000  1.300000e+001  0.000000e+000
      vertex  2.500000e+001  1.300000e+001  2.000000e+000
    endloop
  endfacet
  facet normal  0.000000e+000 -1.000000e+000  -0.000000e+000
    outer loop
      vertex  2.500000e+001  1.300000e+001  2.000000e+000
      vertex -9.000000e+000  1.300000e+001  0.000000e+000
      vertex  2.500000e+001  1.300000e+001  0.000000e+000
    endloop
  endfacet
  facet normal  0.000000e+000  1.000000e+000  0.000000e+000
    outer loop
      vertex -9.000000e+000 -1.300000e+001  2.000000e+000
      vertex  2.500000e+001 -1.300000e+001  2.000000e+000
      vertex -9.000000e+000 -1.300000e+001  0.000000e+000
    endloop
  endfacet
  facet normal  0.000000e+000  1.000000e+000  0.000000e+000
    outer loop
      vertex -9.000000e+000 -1.300000e+001  0.000000e+000
      vertex  2.500000e+001 -1.300000e+001  2.000000e+000
      vertex  2.500000e+001 -1.300000e+001  0.000000e+000
    endloop
  endfacet
  facet normal  9.999999e-001  0.000000e+000  0.000000e+000
    outer loop
      vertex  2.700000e+001  2.299445e+001  2.000000e+000
      vertex  2.700000e+001 -2.414915e+001 -1.243450e-014
      vertex  2.700000e+001  0.000000e+000  0.000000e+000
    endloop
  endfacet
  facet normal  9.999999e-001  0.000000e+000  0.000000e+000
    outer loop
      vertex  2.700000e+001  2.299445e+001  2.000000e+000
      vertex  2.700000e+001  0.000000e+000  0.000000e+000
      vertex  2.700000e+001  2.414915e+001  0.000000e+000
    endloop
  endfacet
  facet normal  9.999999e-001  0.000000e+000  -0.000000e+000
    outer loop
      vertex  2.700000e+001  2.299445e+001  2.000000e+000
      vertex  2.700000e+001  2.414915e+001  0.000000e+000
      vertex  2.700000e+001  3.050000e+001  1.100000e+001
    endloop
  endfacet
  facet normal  1.000000e+000  0.000000e+000  0.000000e+000
    outer loop
      vertex  2.700000e+001  2.299445e+001  2.000000e+000
      vertex  2.700000e+001  3.050000e+001  1.100000e+001
      vertex  2.700000e+001  2.819060e+001  1.100000e+001
    endloop
  endfacet
  facet normal  1.000000e+000  0.000000e+000  0.000000e+000
    outer loop
      vertex  2.700000e+001 -2.414915e+001 -1.243450e-014
      vertex  2.700000e+001  2.299445e+001  2.000000e+000
      vertex  2.700000e+001  0.000000e+000  2.000000e+000
    endloop
  endfacet
  facet normal  1.000000e+000  0.000000e+000  0.000000e+000
    outer loop
      vertex  2.700000e+001 -2.414915e+001 -1.243450e-014
      vertex  2.700000e+001  0.000000e+000  2.000000e+000
      vertex  2.700000e+001 -2.299445e+001  2.000000e+000
    endloop
  endfacet
  facet normal  1.000000e+000  0.000000e+000  0.000000e+000
    outer loop
      vertex  2.700000e+001 -2.414915e+001 -1.243450e-014
      vertex  2.700000e+001 -2.299445e+001  2.000000e+000
      vertex  2.700000e+001 -2.819060e+001  1.100000e+001
    endloop
  endfacet
  facet normal  1.000000e+000  0.000000e+000  0.000000e+000
    outer loop
      vertex  2.700000e+001 -2.414915e+001 -1.243450e-014
      vertex  2.700000e+001 -2.819060e+001  1.100000e+001
      vertex  2.700000e+001 -3.050000e+001  1.100000e+001
    endloop
  endfacet
  facet normal  -0.000000e+000 -8.660254e-001 -5.000000e-001
    outer loop
      vertex  2.500000e+001 -2.414915e+001 -1.243450e-014
      vertex  2.700000e+001 -2.414915e+001 -1.243450e-014
      vertex  2.500000e+001 -3.050000e+001  1.100000e+001
    endloop
  endfacet
  facet normal  0.000000e+000 -8.660254e-001 -5.000000e-001
    outer loop
      vertex  2.500000e+001 -3.050000e+001  1.100000e+001
      vertex  2.700000e+001 -2.414915e+001 -1.243450e-014
      vertex  2.700000e+001 -3.050000e+001  1.100000e+001
    endloop
  endfacet
  facet normal  0.000000e+000  0.000000e+000  1.000000e+000
    outer loop
      vertex  2.500000e+001 -2.819060e+001  1.100000e+001
      vertex  2.500000e+001 -3.050000e+001  1.100000e+001
      vertex  2.700000e+001 -2.819060e+001  1.100000e+001
    endloop
  endfacet
  facet normal  0.000000e+000  0.000000e+000  1.000000e+000
    outer loop
      vertex  2.700000e+001 -2.819060e+001  1.100000e+001
      vertex  2.500000e+001 -3.050000e+001  1.100000e+001
      vertex  2.700000e+001 -3.050000e+001  1.100000e+001
    endloop
  endfacet
  facet normal  0.000000e+000  8.660253e-001  5.000001e-001
    outer loop
      vertex  2.500000e+001 -2.819060e+001  1.100000e+001
      vertex  2.700000e+001 -2.819060e+001  1.100000e+001
      vertex  2.500000e+001 -2.299445e+001  2.000000e+000
    endloop
  endfacet
  facet normal  -0.000000e+000  8.660253e-001  5.000001e-001
    outer loop
      vertex  2.500000e+001 -2.299445e+001  2.000000e+000
      vertex  2.700000e+001 -2.819060e+001  1.100000e+001
      vertex  2.700000e+001 -2.299445e+001  2.000000e+000
    endloop
  endfacet
  facet normal  0.000000e+000 -8.660253e-001  5.000001e-001
    outer loop
      vertex  2.500000e+001  2.819060e+001  1.100000e+001
      vertex  2.500000e+001  2.299445e+001  2.000000e+000
      vertex  2.700000e+001  2.819060e+001  1.100000e+001
    endloop
  endfacet
  facet normal  0.000000e+000 -8.660253e-001  5.000001e-001
    outer loop
      vertex  2.700000e+001  2.819060e+001  1.100000e+001
      vertex  2.500000e+001  2.299445e+001  2.000000e+000
      vertex  2.700000e+001  2.299445e+001  2.000000e+000
    endloop
  endfacet
  facet normal  0.000000e+000  0.000000e+000  1.000000e+000
    outer loop
      vertex  2.500000e+001  3.050000e+001  1.100000e+001
      vertex  2.500000e+001  2.819060e+001  1.100000e+001
      vertex  2.700000e+001  3.050000e+001  1.100000e+001
    endloop
  endfacet
  facet normal  0.000000e+000  0.000000e+000  1.000000e+000
    outer loop
      vertex  2.700000e+001  3.050000e+001  1.100000e+001
      vertex  2.500000e+001  2.819060e+001  1.100000e+001
      vertex  2.700000e+001  2.819060e+001  1.100000e+001
    endloop
  endfacet
  facet normal  0.000000e+000  8.660254e-001 -5.000000e-001
    outer loop
      vertex  2.500000e+001  2.414915e+001  0.000000e+000
      vertex  2.500000e+001  3.050000e+001  1.100000e+001
      vertex  2.700000e+001  2.414915e+001  0.000000e+000
    endloop
  endfacet
  facet normal  0.000000e+000  8.660254e-001 -5.000000e-001
    outer loop
      vertex  2.700000e+001  2.414915e+001  0.000000e+000
      vertex  2.500000e+001  3.050000e+001  1.100000e+001
      vertex  2.700000e+001  3.050000e+001  1.100000e+001
    endloop
  endfacet
endsolid CATIA STL
